<svg xmlns="http://www.w3.org/2000/svg" viewBox="0 0 771.52 133.08"><defs><style>.cls-1{fill:#cbae2d;}.cls-2{fill:#80451d;}.cls-3{fill:#4b2b11;}.cls-4,.cls-7{fill:#000;}.cls-5{fill:#fff;}.cls-5,.cls-6,.cls-7{stroke:#000;stroke-linecap:round;stroke-linejoin:round;stroke-width:4px;}.cls-6{fill:none;}</style></defs><g id="Layer_2" data-name="Layer 2"><g id="Layer_1-2" data-name="Layer 1"><path class="cls-1" d="M725.39,74.21C542.37,127,347.85,54.71,141.82,99.4l-15.53,3.84c216.48-42.91,421.45,37.62,614.92-13.55Z"/><path class="cls-2" d="M741.21,89.69c-193.47,51.17-398.44-29.36-614.92,13.55l-15.5,3.85C337.71,66,553.13,154.7,757.05,105.17Z"/><path class="cls-3" d="M755.67,103.83c-203,49.66-417.52-38.36-643.53,2.93l-15.5,3.85c236.47-39.5,461.43,56.73,674.88,8.7Z"/><path class="cls-4" d="M517.28,55a12.22,12.22,0,0,1,.88-1.58,16.35,16.35,0,0,1,1.13-1.39c.41-.42.84-.85,1.29-1.23s.94-.73,1.44-1.06a18.94,18.94,0,0,1,6.43-2.62,23.33,23.33,0,0,1,6.66-.2,25,25,0,0,1,3.23.4c1.06.22,2.12.56,3.16.87a13,13,0,0,0,6.2.64c2-.32,3.95-1.65,5.76-2.43a10.94,10.94,0,0,1,2.73-.81c.92-.2,1.83-.37,2.77-.53,1.88-.31,3.76-.63,6.18-.88h0a.4.4,0,0,1,.45.37.32.32,0,0,1,0,.17,10.49,10.49,0,0,1-4.57,5.4c-.5.3-1,.57-1.55.83s-1.06.47-1.61.64a12.32,12.32,0,0,1-1.66.44,10.76,10.76,0,0,1-1.71.12c-2.3,0-4.55-1-6.66-1.06a16.74,16.74,0,0,0-6.3.94c-1,.32-2.07.67-3.09.92s-2,.4-3,.58c-2,.36-3.9.79-5.78,1s-3.75.27-5.68.42c-.47.05-1,.09-1.46.12s-1,.11-1.51.14-1,.12-1.58.18-1.08.15-1.69.19h0a.39.39,0,0,1-.39-.56Z"/><path class="cls-4" d="M351.8,60.92a9.86,9.86,0,0,1,2.53-2.77,8.15,8.15,0,0,1,2.73-1.34,12.44,12.44,0,0,1,4.39.36,13.07,13.07,0,0,1,1.54.71,3.53,3.53,0,0,0,2.95.41c.92-.34,1.73-1.58,2.62-2.15a2.25,2.25,0,0,1,1.4-.39,5.44,5.44,0,0,1,1.47.21,6.63,6.63,0,0,1,3.16,2,.59.59,0,0,1,.09.69,6.72,6.72,0,0,1-2.54,2.73,5.48,5.48,0,0,1-1.38.58,2.39,2.39,0,0,1-1.45,0c-1-.33-2.1-1.33-3.08-1.41a3.49,3.49,0,0,0-2.74,1.16,15.4,15.4,0,0,1-1.31,1.07,7.2,7.2,0,0,1-1.36.68,7.53,7.53,0,0,1-2.79.8,8.1,8.1,0,0,1-3-.59,9.86,9.86,0,0,1-3.16-2A.56.56,0,0,1,351.8,60.92Z"/><path class="cls-4" d="M677.75,60.34a9.74,9.74,0,0,1,2.54-2.77A8.11,8.11,0,0,1,683,56.23a7.52,7.52,0,0,1,2.91.05,6.83,6.83,0,0,1,1.49.31,14.78,14.78,0,0,1,1.54.7,3.49,3.49,0,0,0,2.95.41c.92-.33,1.72-1.57,2.61-2.15a2.34,2.34,0,0,1,1.4-.38,5.44,5.44,0,0,1,1.48.2,6.61,6.61,0,0,1,3.15,2,.59.59,0,0,1,.1.69,6.67,6.67,0,0,1-2.55,2.73,5.64,5.64,0,0,1-1.37.58,2.32,2.32,0,0,1-1.45,0c-1-.32-2.1-1.32-3.08-1.4a3.51,3.51,0,0,0-2.75,1.15,12.6,12.6,0,0,1-1.3,1.08,7.85,7.85,0,0,1-1.36.68,7.53,7.53,0,0,1-2.8.8,8.07,8.07,0,0,1-3-.6,9.71,9.71,0,0,1-3.16-2A.55.55,0,0,1,677.75,60.34Z"/><path class="cls-4" d="M148.69,10.82a29.72,29.72,0,0,0-13.75,6.7,39,39,0,0,0-9.11,12.16,48.67,48.67,0,0,0-4.4,14.5,54.4,54.4,0,0,0,0,15.08,48.34,48.34,0,0,0,4.29,14.26,38.29,38.29,0,0,0,8.56,11.72,26.71,26.71,0,0,0,12.21,6.57A23.37,23.37,0,0,0,160,90.73a28.81,28.81,0,0,0,11.24-8.16,41.84,41.84,0,0,0,7.3-12.47,48.93,48.93,0,0,0,3-14.41,51.27,51.27,0,0,0-1.19-14.77,44.14,44.14,0,0,0-5.63-13.61,34.14,34.14,0,0,0-10.05-10.39,24.74,24.74,0,0,0-13.52-4.2,25,25,0,0,0-13.71,4.4,38,38,0,0,0-5.8,4.82,39.74,39.74,0,0,0-4.73,6c-.74,1-1.32,2.19-2,3.3s-1.14,2.3-1.65,3.47-1,2.39-1.32,3.63l-.56,1.85L121,42.05a51.81,51.81,0,0,0,2.61,30.51A38.78,38.78,0,0,0,132,85.3a28.65,28.65,0,0,0,6,4.53,26.17,26.17,0,0,0,6.89,2.79,27.24,27.24,0,0,0,7.28.76A24.63,24.63,0,0,0,159.25,92a30.08,30.08,0,0,0,3.3-1.42,26.62,26.62,0,0,0,3-1.9,30.3,30.3,0,0,0,2.8-2.28c.85-.87,1.74-1.69,2.52-2.63s1.53-1.91,2.28-2.87,1.4-2,2-3.12a52,52,0,0,0,3.24-6.67c.42-1.17.89-2.32,1.22-3.52.17-.6.37-1.19.52-1.79l.44-1.81c.16-.6.26-1.22.38-1.83l.35-1.83c.14-1.24.38-2.47.43-3.71a46.81,46.81,0,0,0-1.08-14.82,47,47,0,0,0-5.45-13.86A35.79,35.79,0,0,0,165.4,17a16.51,16.51,0,0,0-1.53-1,14.23,14.23,0,0,0-1.51-.85,5.45,5.45,0,0,0-2.65-.59,1.66,1.66,0,0,0-.82.27,2,2,0,0,0-.61.77,4.42,4.42,0,0,0-.21,2.71,9.33,9.33,0,0,0,1.22,3,14,14,0,0,0,2.29,2.6,10.14,10.14,0,0,0,6.35,2.53,10.29,10.29,0,0,0,6.64-2.45,16.36,16.36,0,0,0,4.6-6,.35.35,0,0,1,.46-.17.33.33,0,0,1,.19.42,17,17,0,0,1-4.15,7A12.21,12.21,0,0,1,168,29a12.88,12.88,0,0,1-8.36-2.51,15.1,15.1,0,0,1-3.19-3.1,12.67,12.67,0,0,1-2-4.16,8.4,8.4,0,0,1,.14-5.09,6,6,0,0,1,1.67-2.42A5.82,5.82,0,0,1,159,10.4a9.43,9.43,0,0,1,5.08.66,17.94,17.94,0,0,1,2,1A19.12,19.12,0,0,1,168,13.11a38.71,38.71,0,0,1,11.84,12c12.27,18.8,10.9,45.71-4.6,62.61a32.38,32.38,0,0,1-6.6,5.5,32.76,32.76,0,0,1-3.81,2.09l-2,.81c-.66.28-1.38.43-2.07.65a29.06,29.06,0,0,1-8.53,1.06,30.57,30.57,0,0,1-15.94-5.11,32.32,32.32,0,0,1-6.33-5.37,43.5,43.5,0,0,1-8.46-13.9,58.12,58.12,0,0,1-3.63-15.73,56.29,56.29,0,0,1,.79-16.12,48.5,48.5,0,0,1,5.75-15.2,47.39,47.39,0,0,1,4.77-6.7A41.39,41.39,0,0,1,135.22,14a28.17,28.17,0,0,1,32.38-1.86,38.69,38.69,0,0,1,12.3,11.78,49.81,49.81,0,0,1,6.86,15.41,57.57,57.57,0,0,1-1.38,33.3,46.16,46.16,0,0,1-8.53,14.84c-.48.54-.92,1.12-1.45,1.63l-1.57,1.52a34.15,34.15,0,0,1-3.39,2.81,15.53,15.53,0,0,1-1.83,1.25l-1.89,1.17c-1.33.67-2.68,1.33-4.07,1.87A30.89,30.89,0,0,1,144.9,98.8a32.44,32.44,0,0,1-15.22-8.62,44.39,44.39,0,0,1-9.59-14.06A53.48,53.48,0,0,1,116,59.91a56.2,56.2,0,0,1,.87-16.53A49.88,49.88,0,0,1,122.68,28a39.67,39.67,0,0,1,10.86-12.23,32.18,32.18,0,0,1,7.18-3.88,28.34,28.34,0,0,1,7.89-1.75.35.35,0,0,1,.38.31.34.34,0,0,1-.28.38Z"/><path class="cls-4" d="M510.81,22.65a6.82,6.82,0,0,1,4.83,2.11,7.13,7.13,0,0,1,2.07,5.37,8.45,8.45,0,0,1-2.56,5.52A8.05,8.05,0,0,1,509,37.82a10,10,0,0,1-5.9-2.53,10.84,10.84,0,0,1-3.46-5.54,12.59,12.59,0,0,1,.18-6.43,15.62,15.62,0,0,1,2.83-5.46,17.83,17.83,0,0,1,4.5-4,24.42,24.42,0,0,1,5.16-2.38A46.77,46.77,0,0,1,522.5,9.63a58.38,58.38,0,0,0,9-1.35A6.79,6.79,0,0,0,534.3,7a2.33,2.33,0,0,0,.55-.77,1.66,1.66,0,0,0,.14-.5l2.75,2A4.65,4.65,0,0,0,534,9.39a10.15,10.15,0,0,0-2.47,4.91,54.86,54.86,0,0,0-1,6.54c-.24,2.27-.48,4.53-.64,6.8-.36,4.54-.57,9.08-.54,13.63s.3,9.11.54,13.67.42,9.11.3,13.66a66.45,66.45,0,0,1-1.52,14,27.43,27.43,0,0,1-2.73,7,19.46,19.46,0,0,1-2.22,3.17A18.82,18.82,0,0,1,521,95.4a16.28,16.28,0,0,1-6.85,3.1,11.17,11.17,0,0,1-7.21-1,.36.36,0,0,1,.22-.67h0c4.48.62,8.39-1.61,11.12-4.53A19.72,19.72,0,0,0,520.08,90a18.56,18.56,0,0,0,1.34-2.63,26.79,26.79,0,0,0,1.63-5.9c.72-4.12.69-8.52,1-13.08s.77-9.07,1.39-13.6,1.26-9,1.63-13.58.55-9.07.55-13.62c0-2.28,0-4.55-.09-6.83a68.6,68.6,0,0,1-.05-7,18.18,18.18,0,0,1,.68-3.82A12.54,12.54,0,0,1,530,6.06a11.44,11.44,0,0,1,3.26-3A9.1,9.1,0,0,1,538,1.7a2.88,2.88,0,0,1,2.7,1.87l.06.17A7,7,0,0,1,540.86,8,8.38,8.38,0,0,1,539,11.37a12.67,12.67,0,0,1-5.52,3.37,57.56,57.56,0,0,1-10.06,2.16,58.61,58.61,0,0,0-8.79,1.76,14.52,14.52,0,0,0-6.55,3.77,7.76,7.76,0,0,0-2.33,6.05A5,5,0,0,0,507,31.22a5.12,5.12,0,0,0,1.22,1.06,4.51,4.51,0,0,0,1.4.64,3.52,3.52,0,0,0,2.88-.46,4.73,4.73,0,0,0,2-2.75c.76-2.25-.89-5.43-3.83-6.36h0a.35.35,0,0,1-.23-.44A.34.34,0,0,1,510.81,22.65Z"/><path class="cls-4" d="M564.39,4.07c0,2.48-.17,4.9-.35,7.32s-.4,4.81-.67,7.2c-.52,4.77-1.13,9.5-1.87,14.2s-1.76,9.34-2.71,14c-.47,2.34-.88,4.69-1.43,7s-1.14,4.67-1.7,7a63.15,63.15,0,0,0-2,14.24,30.46,30.46,0,0,0,.57,7,11.83,11.83,0,0,0,2.4,5.34,5.89,5.89,0,0,0,3.82,2,9.77,9.77,0,0,0,5.16-1.06,17.85,17.85,0,0,0,4.86-3.9c1.56-1.65,3-3.58,4.7-5.43a.36.36,0,0,1,.51,0,.36.36,0,0,1,.12.33,28.68,28.68,0,0,1-2.2,7.21,16.68,16.68,0,0,1-5.05,6.42A13.49,13.49,0,0,1,560,95.6a10.29,10.29,0,0,1-4.76-1.37,9.62,9.62,0,0,1-3.49-3.54,11.35,11.35,0,0,1-1.38-4.32,19.73,19.73,0,0,1,0-4.06c.24-2.61.78-5,1-7.38a98.37,98.37,0,0,0,.43-14.48c0-1.22-.07-2.44-.08-3.66s0-2.43,0-3.65c0-2.43.25-4.85.46-7.26a126.87,126.87,0,0,1,1.9-14.43,107,107,0,0,1,9.57-27.56.36.36,0,0,1,.68.17Z"/><path class="cls-4" d="M188.09,91.52a132.37,132.37,0,0,0,10.2-14.61c1.47-2.47,2.81-5,4.05-7.55.32-.63.62-1.28.92-1.92s.58-1.2.81-1.77a8.61,8.61,0,0,0,.73-2.85,2.35,2.35,0,0,0-.07-.73c-.1-.23-.07-.26-.24-.41a1.91,1.91,0,0,0-1.41-.29.94.94,0,0,0-.6.32,1.77,1.77,0,0,0-.46.95,2.43,2.43,0,0,0,0,1.2,2.11,2.11,0,0,0,.79,1,6.31,6.31,0,0,0,3.68.81c1.44,0,3-.22,4.49-.41a53.37,53.37,0,0,0,8.91-2,1.78,1.78,0,0,1,2.22,1.18,1.76,1.76,0,0,1,0,1l-.21.66c-.78,2.54-1.34,5.11-2,7.58s-1.46,4.92-2.07,7.42c-.17.62-.32,1.27-.47,1.87s-.26,1.15-.33,1.65a4.38,4.38,0,0,0,.13,2.33c.57,1.27,3.2,2.5,5.42,1.15l0,0a.37.37,0,0,1,.5.12.39.39,0,0,1,0,.33,5,5,0,0,1-3.89,2.77A6.36,6.36,0,0,1,214,89.86a7.72,7.72,0,0,1-2.27-5.26,17.24,17.24,0,0,1,0-2.4c.07-.74.13-1.44.22-2.15a34.17,34.17,0,0,1,2.08-8.32,33.7,33.7,0,0,1,4.32-7.41l2,2.88a53.53,53.53,0,0,0-9.14.19c-1.53.17-3,.41-4.55.67a11.15,11.15,0,0,1-5.26-.17c-4.26-1.24-6.09-8-1.38-11.41a7.41,7.41,0,0,1,7.3-.55,7.11,7.11,0,0,1,1.73,1.1,8.25,8.25,0,0,1,1.33,1.54,8.55,8.55,0,0,1,1.31,3.55,13.83,13.83,0,0,1-.71,6.06,33.82,33.82,0,0,1-2,4.59,44,44,0,0,1-5.41,8,40.27,40.27,0,0,1-15.11,11.34.37.37,0,0,1-.47-.2A.36.36,0,0,1,188.09,91.52Z"/><path class="cls-4" d="M256.91,81.57a12.64,12.64,0,0,1-3.38,5.7A15.44,15.44,0,0,1,247.64,91a16,16,0,0,1-7.27.85A17.36,17.36,0,0,1,228,84.39a17.94,17.94,0,0,1-2.86-6.83,17.27,17.27,0,0,1,0-7.16,17.86,17.86,0,0,1,2.78-6.35,23.68,23.68,0,0,1,4.59-4.82,29.68,29.68,0,0,1,5.45-3.42,28.88,28.88,0,0,1,6.21-2.29,13.4,13.4,0,0,1,7.23.13A9.59,9.59,0,0,1,255,55.76a9.27,9.27,0,0,1,2.34,3.69,8.57,8.57,0,0,1,.33,4.57,7.4,7.4,0,0,1-2.44,4.1,7.55,7.55,0,0,1-4.1,1.74,6.55,6.55,0,0,1-4.24-1,5.74,5.74,0,0,1-2.41-6.67.38.38,0,0,1,.48-.21.41.41,0,0,1,.21.24v0a4.48,4.48,0,0,0,3.36,3.24,2.89,2.89,0,0,0,1.68-.27,3.23,3.23,0,0,0,1.23-1,2,2,0,0,0,.35-1.18,3.38,3.38,0,0,0-.3-1.41A5.91,5.91,0,0,0,249.06,59a12.41,12.41,0,0,0-10.25-1.12,11.94,11.94,0,0,0-6.42,5.35,13.61,13.61,0,0,0-1.07,2.53,17.7,17.7,0,0,0-.63,5.26,17.11,17.11,0,0,0,.82,4.9,14.61,14.61,0,0,0,5.82,7.21,13.81,13.81,0,0,0,9,2.48,16.76,16.76,0,0,0,10-4.41h0a.38.38,0,0,1,.52,0A.37.37,0,0,1,256.91,81.57Z"/><path class="cls-4" d="M263.68,65.13A101.15,101.15,0,0,0,277,39.45c.77-2.25,1.47-4.52,2-6.81.3-1.14.56-2.3.8-3.45l.18-.85a4.42,4.42,0,0,0,.08-.54c0-.3-.07-.48,0-.14a1.85,1.85,0,0,0,.45.69,1.92,1.92,0,0,0,.87.47,1.86,1.86,0,0,0,.75,0c.12,0,.14,0,.11,0a2.63,2.63,0,0,0-.43.42l-.36.52c-.15.19-.27.41-.41.61a25.77,25.77,0,0,0-2.6,5.83c-.69,2.16-1.36,4.52-2,6.91l-2,7.12c-1.38,4.74-2.73,9.49-4.23,14.2-3,9.42-6.5,18.71-9,28.25v0a1.07,1.07,0,0,1-2.08-.54c.87-3.41,1.66-6.85,2.57-10.3a71.11,71.11,0,0,1,3.39-10.32,33.61,33.61,0,0,1,6-9.54,24.21,24.21,0,0,1,4.49-3.83A12,12,0,0,1,282.15,56a9,9,0,0,1,3.88.89,7.66,7.66,0,0,1,3.22,2.89,8.25,8.25,0,0,1,1.2,3.92,13.17,13.17,0,0,1-.32,3.42,32.42,32.42,0,0,1-1.93,5.4l-2.09,4.85c-.7,1.61-1.44,3.21-2.17,4.81s-1.59,3.25-2.13,4.65a6.35,6.35,0,0,0-.48,2,3.65,3.65,0,0,0,.41,1.89,2,2,0,0,0,1.44,1.09,2,2,0,0,0,1.93-.52l0,0a.36.36,0,0,1,.5,0,.36.36,0,0,1,.08.39,3,3,0,0,1-2.59,1.68A3.93,3.93,0,0,1,280,92.15,7,7,0,0,1,278.56,86c.4-2,.93-3.57,1.37-5.3s1-3.39,1.5-5.07l1.57-5A32.4,32.4,0,0,0,284.29,66a6.9,6.9,0,0,0,.09-1.82,2.54,2.54,0,0,0-.36-1.06,1.48,1.48,0,0,0-.68-.54,3.44,3.44,0,0,0-1.23-.25,7.16,7.16,0,0,0-3.34,1.07A28.93,28.93,0,0,0,275,66a33.19,33.19,0,0,0-6.47,7.33,42.92,42.92,0,0,0-4.5,9.2,87.39,87.39,0,0,0-2.8,10.09l-2.08-.52c2.37-9.58,3.79-19.41,5.69-29.11.95-4.85,2.05-9.67,3.13-14.49l1.64-7.22c.57-2.39,1.05-4.83,1.84-7.38a29,29,0,0,1,3.42-7.65c.21-.31.4-.62.63-.91l.34-.45.18-.23.24-.28a9.12,9.12,0,0,1,2.36-2,7,7,0,0,1,1.81-.74,5.67,5.67,0,0,1,2.58-.06,5.37,5.37,0,0,1,2.5,1.3,5.53,5.53,0,0,1,1.46,2.22,7.31,7.31,0,0,1,.27,3.51A10.7,10.7,0,0,1,287,30l-.27.95c-.35,1.24-.75,2.46-1.17,3.68a72.49,72.49,0,0,1-2.89,7.14,67.55,67.55,0,0,1-18.43,23.89.35.35,0,0,1-.51-.48Z"/><path class="cls-4" d="M298.44,74a51.85,51.85,0,0,0,5.3-2.85,39.61,39.61,0,0,0,4.57-3.36,33.36,33.36,0,0,0,3.83-3.88,9.84,9.84,0,0,0,1.21-1.81,3.37,3.37,0,0,0,.39-1.33c0-.21,0,0,0,0s.1,0-.35-.15a5.11,5.11,0,0,0-1.78,0,7.46,7.46,0,0,0-1.09.21l-1.27.37a32.55,32.55,0,0,0-4.93,2.19,32.12,32.12,0,0,0-4.73,3,16.89,16.89,0,0,0-6.24,9.55,11.06,11.06,0,0,0,.09,5.55,7.3,7.3,0,0,0,2.43,3.79,10.54,10.54,0,0,0,3.7,1.85,12.38,12.38,0,0,0,4.69.33,25.34,25.34,0,0,0,5.3-1.29c1.85-.61,3.74-1.39,5.77-2a.38.38,0,0,1,.47.24.41.41,0,0,1,0,.33,23.89,23.89,0,0,1-4.32,4.73,18.38,18.38,0,0,1-5.91,3.34,14.3,14.3,0,0,1-7.36.43,10.87,10.87,0,0,1-6.69-4.08,9.67,9.67,0,0,1-1.66-3.66,12.26,12.26,0,0,1-.22-3.69,26.92,26.92,0,0,1,1.59-6.46,53,53,0,0,1,5.56-11.48,25.19,25.19,0,0,1,4.31-5A23.79,23.79,0,0,1,306.76,55l1.57-.71a15.26,15.26,0,0,1,1.84-.61,11.39,11.39,0,0,1,4.25-.38,7.68,7.68,0,0,1,5,2.46,7.34,7.34,0,0,1,1.76,5.66,10,10,0,0,1-1.66,4.34,13.62,13.62,0,0,1-2.59,2.91,25.44,25.44,0,0,1-5.65,3.72A23.79,23.79,0,0,1,305,74.46a20,20,0,0,1-6.46.18.36.36,0,0,1-.31-.41.37.37,0,0,1,.2-.28Z"/><path class="cls-4" d="M338.7,67a5.34,5.34,0,0,0,4.19-2.64,2.29,2.29,0,0,0-.65-2.82,5.85,5.85,0,0,0-3.48-.8,10.63,10.63,0,0,0-2.16.32,12.63,12.63,0,0,0-2.09.76,8.48,8.48,0,0,0-3.08,2.35,4.25,4.25,0,0,0-.85,3.07,3.54,3.54,0,0,0,.6,1.52,8.66,8.66,0,0,0,1.49,1.6,25,25,0,0,0,4.75,3c1.83.92,3.8,1.8,5.7,2.87a13.52,13.52,0,0,1,5,4.52,7.33,7.33,0,0,1,1.14,3.6,7,7,0,0,1-1.18,3.92,12.56,12.56,0,0,1-5.89,4.56,15.94,15.94,0,0,1-7,1.08,19,19,0,0,1-6.83-1.62,16.63,16.63,0,0,1-3.06-1.76,10.79,10.79,0,0,1-2.71-2.66,5.55,5.55,0,0,1-.86-2.08,4.05,4.05,0,0,1,0-1.26,3.67,3.67,0,0,1,.41-1.14,3.47,3.47,0,0,1,1.59-1.45,2.53,2.53,0,0,1,2-.08.36.36,0,0,1,.2.48.4.4,0,0,1-.23.21h0a1.67,1.67,0,0,0-1.18,1.68.85.85,0,0,0,.11.36c0,.09.12.12.21.25a3.31,3.31,0,0,0,.68.55,10.49,10.49,0,0,0,2.19,1,19.08,19.08,0,0,0,2.55.75,23,23,0,0,0,5.21.55,38.64,38.64,0,0,0,5.16-.46,11.54,11.54,0,0,0,4.63-1.48,2.92,2.92,0,0,0,1.24-1.62,3.1,3.1,0,0,0,.08-1.11,4.38,4.38,0,0,0-.34-1.18,5.94,5.94,0,0,0-1.65-2.09,8.85,8.85,0,0,0-2.41-1.4A27.1,27.1,0,0,0,336.25,77a22,22,0,0,1-6.54-1.82,11.35,11.35,0,0,1-3.23-2.31A10,10,0,0,1,324.19,69a10.82,10.82,0,0,1,1-8.72,13,13,0,0,1,6.31-5.3,15.49,15.49,0,0,1,3.79-1,14.2,14.2,0,0,1,4,0,12.7,12.7,0,0,1,3.94,1.21,8.82,8.82,0,0,1,3.41,3,6.85,6.85,0,0,1,1,4.63,6.39,6.39,0,0,1-2.09,3.9A6.55,6.55,0,0,1,342,68.29a6.24,6.24,0,0,1-3.45-.57.37.37,0,0,1-.16-.49.34.34,0,0,1,.28-.2Z"/><path class="cls-4" d="M374.54,32.17c-.31,1.74-.74,3.38-1.18,5s-.92,3.22-1.42,4.79q-1.5,4.71-3.22,9.24c-1.15,3-2.58,5.94-3.91,8.91-.65,1.49-1.29,3-2,4.48s-1.51,2.94-2.26,4.44a27.74,27.74,0,0,0-3.07,9.34,9.92,9.92,0,0,0,.55,4.55,5.66,5.66,0,0,0,2.13,2.75,8.31,8.31,0,0,0,2.68,1.1,9.9,9.9,0,0,0,3.57.06,22.16,22.16,0,0,0,4.19-1.24c1.49-.56,3-1.26,4.75-1.81a.38.38,0,0,1,.47.25.41.41,0,0,1,0,.29,19.59,19.59,0,0,1-3.06,4.36A14.47,14.47,0,0,1,368.12,92a11.78,11.78,0,0,1-6.25.92,8.83,8.83,0,0,1-6-3.32,8.22,8.22,0,0,1-1.45-3.14,9.86,9.86,0,0,1-.21-3.12A35.07,35.07,0,0,1,355.25,78a53.36,53.36,0,0,0,1.61-10c.06-.86.14-1.71.24-2.56s.18-1.71.33-2.54c.27-1.69.71-3.33,1.13-5a58.24,58.24,0,0,1,3.28-9.64A55.61,55.61,0,0,1,367,39.48a45.59,45.59,0,0,1,3.21-4,34.7,34.7,0,0,1,3.72-3.65.38.38,0,0,1,.53.05.42.42,0,0,1,.08.3Z"/><path class="cls-4" d="M443,62.88a9.63,9.63,0,0,0-6.86-2.7,10.54,10.54,0,0,0-6.36,2.09c-3.56,2.68-5.48,7.35-6.05,12a15.22,15.22,0,0,0,.42,6.42,8.77,8.77,0,0,0,3.56,4.63,12,12,0,0,0,2.93,1.4,16.37,16.37,0,0,0,3.29.64,12.35,12.35,0,0,0,6.76-1.43,13.9,13.9,0,0,0,5.43-5.28,14.89,14.89,0,0,0,2.08-7.5,7.48,7.48,0,0,0-.71-3.54A2.81,2.81,0,0,0,445.41,68a1.28,1.28,0,0,0-.83.25,2.69,2.69,0,0,0-.69.75,10.11,10.11,0,0,0-1.2,2.78,30.33,30.33,0,0,0-1.31,7.07,13.27,13.27,0,0,0,1.31,6.51A9.42,9.42,0,0,0,447.27,90a8.88,8.88,0,0,0,7.22,0h0a.36.36,0,0,1,.47.18.35.35,0,0,1,0,.37,7.76,7.76,0,0,1-1.66,1.57,9.93,9.93,0,0,1-2.11,1.06,10.56,10.56,0,0,1-4.82.45A11.47,11.47,0,0,1,443.9,93a12.78,12.78,0,0,1-2.26-1.18,13.66,13.66,0,0,1-3.6-3.55,16.48,16.48,0,0,1-2.89-9.42,20.49,20.49,0,0,1,2.11-9.17,11.88,11.88,0,0,1,3.22-4.22A6.94,6.94,0,0,1,443.34,64a5.43,5.43,0,0,1,3.27.31,6.54,6.54,0,0,1,3.57,4.19,12.21,12.21,0,0,1,.31,4.68,25.55,25.55,0,0,1-2.25,8.49A21.75,21.75,0,0,1,443,89a16,16,0,0,1-4,2.62,14.7,14.7,0,0,1-4.78,1.3A16.84,16.84,0,0,1,424.4,91a15.22,15.22,0,0,1-7.09-7.78,19,19,0,0,1-.95-10,24.07,24.07,0,0,1,3.39-9A18,18,0,0,1,427,57.49a13.47,13.47,0,0,1,9.72-.84A11.58,11.58,0,0,1,441,58.83a8.72,8.72,0,0,1,2.67,3.68.35.35,0,0,1-.22.46.36.36,0,0,1-.37-.08Z"/><path class="cls-4" d="M456.55,78.71,461.3,71c1.51-2.58,3-5.11,4.45-7.7,2.86-5.16,5.49-10.38,7.86-15.7,1.22-2.64,2.36-5.32,3.5-8l.84-2,.79-2A20.07,20.07,0,0,0,479.92,32,3.8,3.8,0,0,0,480,30.8a1.57,1.57,0,0,0-.25-.69c-.13-.21-.28-.35-.29-.39a.21.21,0,0,1,0-.07.13.13,0,0,0-.12-.06c-.32,0-1.22.86-1.91,2s-1.53,2.51-2.24,3.81a59,59,0,0,0-6.32,16.65c-1.29,5.85-1.37,11.94-2.06,17.9-.17,1.49-.38,3-.63,4.46s-.5,2.86-.69,4.21a23.76,23.76,0,0,0-.21,3.9,12.29,12.29,0,0,0,.61,3.55,9.27,9.27,0,0,0,1.65,3,6.58,6.58,0,0,0,1.21,1.15,4.77,4.77,0,0,0,1.43.75,5.83,5.83,0,0,0,6.71-2.15v0a.37.37,0,0,1,.5-.1.34.34,0,0,1,.16.33,6,6,0,0,1-2.74,4.25,8.62,8.62,0,0,1-8.06.73,10.78,10.78,0,0,1-2.44-1.47,13,13,0,0,1-3.44-4.34,16,16,0,0,1-1.53-5.18,24.21,24.21,0,0,1-.05-5.1,53.72,53.72,0,0,1,1.78-9.1c1.58-5.85,3.9-11.56,5.6-17.36s3.2-11.67,5-17.58c.44-1.48.94-2.95,1.46-4.41a13.41,13.41,0,0,1,1.16-2.45,7.32,7.32,0,0,1,2.47-2.46,6,6,0,0,1,2-.73A5.71,5.71,0,0,1,481,24a6.79,6.79,0,0,1,3.41,2.08,7.66,7.66,0,0,1,1.78,3.28,10,10,0,0,1,.27,3.31,24.33,24.33,0,0,1-1.12,5.13c-.44,1.49-.9,3-1.42,4.43a74.16,74.16,0,0,1-3.59,8.59,80.45,80.45,0,0,1-4.6,8.08,82,82,0,0,1-5.44,7.51,71.05,71.05,0,0,1-13.26,12.79.36.36,0,0,1-.52-.48Z"/><path class="cls-4" d="M588.29,75.88A53.11,53.11,0,0,0,593.6,73a39.48,39.48,0,0,0,4.56-3.36A33.36,33.36,0,0,0,602,65.79,9.11,9.11,0,0,0,603.2,64a3.36,3.36,0,0,0,.4-1.32c0-.21,0,0,0,0s.1,0-.34-.15a5.18,5.18,0,0,0-1.79,0,7.72,7.72,0,0,0-1.09.21l-1.27.37a33,33,0,0,0-4.93,2.19,32.66,32.66,0,0,0-4.73,3,16.83,16.83,0,0,0-6.23,9.55,11,11,0,0,0,.09,5.55,7.29,7.29,0,0,0,2.42,3.79,10.63,10.63,0,0,0,3.7,1.85,12.42,12.42,0,0,0,4.7.33,26,26,0,0,0,5.3-1.29c1.84-.61,3.73-1.39,5.77-2a.37.37,0,0,1,.46.24.35.35,0,0,1-.05.33,23.59,23.59,0,0,1-4.32,4.73,18.17,18.17,0,0,1-5.91,3.34,14.26,14.26,0,0,1-7.35.43,10.87,10.87,0,0,1-6.7-4.08,9.82,9.82,0,0,1-1.66-3.66,12.59,12.59,0,0,1-.22-3.69,26.46,26.46,0,0,1,1.6-6.46,52.54,52.54,0,0,1,5.55-11.48A25.58,25.58,0,0,1,591,60.66a24.35,24.35,0,0,1,5.66-3.73l1.58-.7a14.54,14.54,0,0,1,1.83-.61,11.42,11.42,0,0,1,4.26-.38,7.74,7.74,0,0,1,2.54.67,7.65,7.65,0,0,1,2.46,1.79,7.33,7.33,0,0,1,1.5,2.72,7.52,7.52,0,0,1,.26,2.94,9.89,9.89,0,0,1-1.66,4.34,13.62,13.62,0,0,1-2.59,2.91,25.22,25.22,0,0,1-5.65,3.72,23.79,23.79,0,0,1-6.29,2.06,20,20,0,0,1-6.46.18.38.38,0,0,1-.31-.41.36.36,0,0,1,.21-.28Z"/><path class="cls-4" d="M638.57,62.83a9.55,9.55,0,0,0-6.86-2.7,10.47,10.47,0,0,0-6.36,2.08c-3.56,2.69-5.48,7.35-6.05,12a15.2,15.2,0,0,0,.42,6.42,8.67,8.67,0,0,0,3.56,4.63,12,12,0,0,0,2.93,1.41,16.36,16.36,0,0,0,3.29.63,12.27,12.27,0,0,0,6.76-1.43,13.87,13.87,0,0,0,5.43-5.27,14.92,14.92,0,0,0,2.08-7.51,7.29,7.29,0,0,0-.71-3.53A2.83,2.83,0,0,0,641,68a1.35,1.35,0,0,0-.83.26,2.63,2.63,0,0,0-.69.74,10.24,10.24,0,0,0-1.2,2.78,30.32,30.32,0,0,0-1.31,7.08,13.34,13.34,0,0,0,1.31,6.5,9.4,9.4,0,0,0,4.58,4.58,8.85,8.85,0,0,0,7.22,0h0a.34.34,0,0,1,.47.17.35.35,0,0,1,0,.37A7.8,7.8,0,0,1,648.82,92a10.42,10.42,0,0,1-2.11,1.06,10.56,10.56,0,0,1-4.82.44,12.06,12.06,0,0,1-2.45-.62,13.48,13.48,0,0,1-2.26-1.18,13.66,13.66,0,0,1-3.6-3.55,16.52,16.52,0,0,1-2.89-9.42,20.46,20.46,0,0,1,2.11-9.17A12,12,0,0,1,636,65.36,6.94,6.94,0,0,1,638.88,64a5.43,5.43,0,0,1,3.27.31,6.56,6.56,0,0,1,3.57,4.19,12.26,12.26,0,0,1,.31,4.69,25.56,25.56,0,0,1-2.25,8.48A21.65,21.65,0,0,1,638.49,89a15.69,15.69,0,0,1-4,2.62,14.7,14.7,0,0,1-4.78,1.3A16.83,16.83,0,0,1,619.94,91a15.26,15.26,0,0,1-7.09-7.78,19,19,0,0,1-1-10,24.07,24.07,0,0,1,3.39-9,17.93,17.93,0,0,1,7.27-6.66,13.52,13.52,0,0,1,9.72-.85,11.71,11.71,0,0,1,4.22,2.18,8.81,8.81,0,0,1,2.66,3.69.36.36,0,0,1-.22.46.36.36,0,0,1-.37-.09Z"/><path class="cls-4" d="M651.1,77.88l4.74-7.7c1.51-2.58,3-5.11,4.46-7.7,2.85-5.16,5.48-10.38,7.85-15.7,1.23-2.64,2.36-5.32,3.5-8l.84-2,.79-2a19.56,19.56,0,0,0,1.18-3.57,3.79,3.79,0,0,0,.06-1.18,1.54,1.54,0,0,0-.25-.68c-.13-.22-.28-.35-.29-.39a.41.41,0,0,1,0-.08.15.15,0,0,0-.12-.05c-.31,0-1.22.86-1.91,2s-1.53,2.52-2.24,3.82a59,59,0,0,0-6.32,16.65c-1.29,5.85-1.37,11.93-2.06,17.9-.17,1.49-.38,3-.63,4.46s-.5,2.85-.68,4.2a22.85,22.85,0,0,0-.22,3.91,12.22,12.22,0,0,0,.61,3.54,9.51,9.51,0,0,0,1.65,3,7.24,7.24,0,0,0,1.21,1.14,4.67,4.67,0,0,0,1.43.75A5.83,5.83,0,0,0,671.45,88h0a.35.35,0,0,1,.49-.11.36.36,0,0,1,.16.34,6,6,0,0,1-2.74,4.24,8.56,8.56,0,0,1-5.23,1.4,8.42,8.42,0,0,1-2.83-.67,10.74,10.74,0,0,1-2.44-1.46,13,13,0,0,1-3.43-4.34,15.84,15.84,0,0,1-1.54-5.18,24.22,24.22,0,0,1,0-5.1A53.84,53.84,0,0,1,655.63,68c1.59-5.84,3.9-11.55,5.61-17.35s3.2-11.67,5-17.58c.44-1.48.94-2.95,1.46-4.41a13.11,13.11,0,0,1,1.16-2.45,7.34,7.34,0,0,1,2.47-2.47,6.16,6.16,0,0,1,2-.72,5.71,5.71,0,0,1,2.26.1A6.71,6.71,0,0,1,679,25.24a7.76,7.76,0,0,1,1.78,3.29,10,10,0,0,1,.27,3.31A23.72,23.72,0,0,1,679.92,37c-.43,1.49-.9,3-1.42,4.43A74,74,0,0,1,674.91,50a79.36,79.36,0,0,1-4.6,8.08,80.77,80.77,0,0,1-5.44,7.52,71.32,71.32,0,0,1-13.26,12.78.35.35,0,0,1-.5-.08A.35.35,0,0,1,651.1,77.88Z"/><path class="cls-4" d="M378,92.82a132.37,132.37,0,0,0,10.2-14.61c1.48-2.47,2.81-5,4-7.55.32-.63.62-1.27.92-1.91s.58-1.21.81-1.78a8.37,8.37,0,0,0,.73-2.85,2.38,2.38,0,0,0-.07-.73c-.1-.23-.07-.25-.23-.41A1.9,1.9,0,0,0,393,62.7a.84.84,0,0,0-.59.31,1.85,1.85,0,0,0-.47,1,2.29,2.29,0,0,0,.05,1.19,2,2,0,0,0,.78,1,6.31,6.31,0,0,0,3.68.81c1.44,0,3-.22,4.49-.41a53.71,53.71,0,0,0,8.92-2,1.78,1.78,0,0,1,2.21,2.22l-.2.66c-.79,2.54-1.35,5.11-2,7.58s-1.46,4.92-2.07,7.43c-.17.61-.32,1.26-.46,1.86A16.23,16.23,0,0,0,407,86a4.38,4.38,0,0,0,.13,2.33c.57,1.27,3.2,2.5,5.42,1.15l0,0a.37.37,0,0,1,.53.45,5,5,0,0,1-3.89,2.78A6.38,6.38,0,0,1,404,91.16a7.63,7.63,0,0,1-2.27-5.25,19.18,19.18,0,0,1,0-2.41c.07-.74.13-1.43.22-2.15A34.17,34.17,0,0,1,404,73a34.44,34.44,0,0,1,4.32-7.4l2,2.87a55.68,55.68,0,0,0-9.14.19c-1.52.17-3,.41-4.54.67a11.31,11.31,0,0,1-5.27-.16c-4.26-1.25-6.09-8-1.38-11.42a7.41,7.41,0,0,1,7.3-.55,7.11,7.11,0,0,1,1.73,1.1,7.89,7.89,0,0,1,1.33,1.54,8.55,8.55,0,0,1,1.31,3.55,13.66,13.66,0,0,1-.71,6.06,33.82,33.82,0,0,1-2,4.59,44,44,0,0,1-5.41,8,40.17,40.17,0,0,1-15.11,11.34.36.36,0,0,1-.47-.2A.38.38,0,0,1,378,92.82Z"/><path class="cls-4" d="M700.49,31.58a50.25,50.25,0,0,1-1.18,5c-.43,1.64-.92,3.22-1.41,4.8-1,3.14-2.07,6.21-3.22,9.24s-2.59,5.93-3.92,8.91c-.65,1.49-1.28,3-2,4.47s-1.51,2.95-2.25,4.44a27.65,27.65,0,0,0-3.07,9.35,9.92,9.92,0,0,0,.54,4.55,5.78,5.78,0,0,0,2.13,2.75,8.47,8.47,0,0,0,2.69,1.1,9.89,9.89,0,0,0,3.57.06A22.37,22.37,0,0,0,696.56,85c1.48-.56,3-1.26,4.74-1.81a.39.39,0,0,1,.48.25.37.37,0,0,1,0,.29,18.9,18.9,0,0,1-3.06,4.35,14.27,14.27,0,0,1-4.61,3.33,11.68,11.68,0,0,1-6.25.92,8.79,8.79,0,0,1-6-3.31,8.4,8.4,0,0,1-1.46-3.14,10.5,10.5,0,0,1-.21-3.12,36.29,36.29,0,0,1,1.07-5.36,53.45,53.45,0,0,0,1.6-10c.07-.85.15-1.71.24-2.55s.19-1.71.34-2.55c.26-1.69.71-3.32,1.13-5a58.24,58.24,0,0,1,3.28-9.64A54,54,0,0,1,693,38.9a45.59,45.59,0,0,1,3.21-4,32.94,32.94,0,0,1,3.72-3.65.37.37,0,0,1,.52.05.33.33,0,0,1,.08.3Z"/><path class="cls-4" d="M709.23,64.69A101.18,101.18,0,0,0,722.6,39c.76-2.25,1.47-4.52,2-6.81.29-1.15.56-2.3.79-3.46l.19-.84a3.06,3.06,0,0,0,.07-.55c0-.29-.06-.47,0-.14a1.57,1.57,0,0,0,.45.69,1.85,1.85,0,0,0,.86.47,1.68,1.68,0,0,0,.75,0c.13,0,.14,0,.11,0a2.86,2.86,0,0,0-.42.43l-.37.51c-.14.2-.26.42-.41.62a26,26,0,0,0-2.59,5.83c-.7,2.16-1.36,4.52-2,6.91L720,49.78c-1.37,4.74-2.73,9.49-4.23,14.2-3,9.41-6.5,18.71-9,28.25v0a1.07,1.07,0,0,1-2.08-.54c.87-3.4,1.66-6.85,2.57-10.3a70.69,70.69,0,0,1,3.39-10.32,33.48,33.48,0,0,1,6-9.53,24.13,24.13,0,0,1,4.48-3.84,12,12,0,0,1,6.57-2.14,8.91,8.91,0,0,1,3.88.88,7.85,7.85,0,0,1,3.22,2.89A8.42,8.42,0,0,1,736,63.28a12.79,12.79,0,0,1-.32,3.42,32.45,32.45,0,0,1-1.92,5.4l-2.1,4.84c-.7,1.62-1.43,3.22-2.17,4.82S727.9,85,727.37,86.4a6.49,6.49,0,0,0-.49,2,3.71,3.71,0,0,0,.41,1.88,2,2,0,0,0,1.44,1.1,2,2,0,0,0,1.93-.52l0,0a.35.35,0,0,1,.5,0,.36.36,0,0,1,.09.39,3,3,0,0,1-2.59,1.67,3.94,3.94,0,0,1-3.1-1.23,7.07,7.07,0,0,1-1.46-6.14c.39-2,.92-3.56,1.37-5.29s1-3.39,1.49-5.07l1.57-5a30.05,30.05,0,0,0,1.29-4.63,6.47,6.47,0,0,0,.09-1.82,2.24,2.24,0,0,0-.36-1,1.46,1.46,0,0,0-.68-.55,3.36,3.36,0,0,0-1.23-.24A7.13,7.13,0,0,0,724.33,63a29.61,29.61,0,0,0-3.81,2.64,33.73,33.73,0,0,0-6.47,7.34,42.46,42.46,0,0,0-4.5,9.2,85.24,85.24,0,0,0-2.79,10.08l-2.09-.51c2.37-9.59,3.8-19.41,5.69-29.12.95-4.85,2.06-9.66,3.13-14.48l1.65-7.22c.57-2.39,1.05-4.83,1.83-7.38a29.71,29.71,0,0,1,3.42-7.65c.21-.31.41-.62.64-.92l.34-.44.17-.23.24-.29a9.59,9.59,0,0,1,2.37-2,7.56,7.56,0,0,1,1.8-.74,5.72,5.72,0,0,1,2.59-.05,5.4,5.4,0,0,1,4,3.51,7.38,7.38,0,0,1,.28,3.52,12.89,12.89,0,0,1-.26,1.27l-.27.95c-.36,1.24-.76,2.47-1.18,3.68a67.19,67.19,0,0,1-2.89,7.15,67.41,67.41,0,0,1-18.43,23.89.36.36,0,0,1-.5-.06A.35.35,0,0,1,709.23,64.69Z"/><path class="cls-5" d="M98.27,37.61c0,5.88-4.57,11.24-12.1,15.32a42.36,42.36,0,0,1-4.22,2h0a78.22,78.22,0,0,1-23.79,5.44q-3.79.3-7.76.32h-.26q-2,0-4-.09a93.23,93.23,0,0,1-14-1.59,64,64,0,0,1-18-6.1C7.61,49.41,3.31,44.94,2.25,40A11.89,11.89,0,0,1,2,37.61a12.93,12.93,0,0,1,2.85-7.84c6.68-8.89,24.44-15.25,45.29-15.25,11.47,0,22,1.91,30.25,5.13l.71.29C91.6,24.18,98.27,30.52,98.27,37.61Z"/><path class="cls-5" d="M50.14,60.71V106.9a100.52,100.52,0,0,1-11-.61q-3.64-.42-7.07-1.08a63.65,63.65,0,0,1-18-6.09c-6.49-3.52-10.79-8-11.85-12.93A11.89,11.89,0,0,1,2,83.8V37.61A11.89,11.89,0,0,0,2.25,40c1.06,4.94,5.36,9.41,11.85,12.93a64,64,0,0,0,18,6.1,93.23,93.23,0,0,0,14,1.59,1.24,1.24,0,0,1,0,.16C47.48,60.73,48.81,60.71,50.14,60.71Z"/><path class="cls-5" d="M50.4,60.71c-.17,1.78-.26,3.6-.26,5.44V60.71Z"/><path class="cls-5" d="M98.27,37.61V83.8c0,5.88-4.57,11.24-12.1,15.32a44.7,44.7,0,0,1-4.22,2h0a70.71,70.71,0,0,1-14.55,4.22,87.78,87.78,0,0,1-9.24,1.21c-2.61.22-5.29.33-8,.33V66.15c0-1.84.09-3.66.26-5.44q4,0,7.76-.32A78.22,78.22,0,0,0,82,55h0a42.36,42.36,0,0,0,4.22-2C93.7,48.85,98.27,43.49,98.27,37.61Z"/><line class="cls-6" x1="2" y1="37.61" x2="2" y2="36.51"/><line class="cls-6" x1="98.27" y1="37.61" x2="98.27" y2="36.51"/><line class="cls-6" x1="14.1" y1="99.12" x2="14.1" y2="52.93"/><line class="cls-6" x1="86.17" y1="52.93" x2="86.17" y2="99.12"/><line class="cls-6" x1="32.07" y1="59.03" x2="32.07" y2="105.21"/><line class="cls-6" x1="68.19" y1="59.03" x2="67.4" y2="105.36"/><path class="cls-5" d="M91.8,40.84c0,5.06-3.93,9.67-10.41,13.18-1.13.61-2.34,1.19-3.63,1.73h0A67.34,67.34,0,0,1,57.3,60.43c-2.17.17-4.4.27-6.67.27h-.22c-1.17,0-2.32,0-3.46-.07a79.76,79.76,0,0,1-12.08-1.37A55.2,55.2,0,0,1,19.42,54c-5.59-3-9.28-6.88-10.2-11.12A10.14,10.14,0,0,1,9,40.84a11.17,11.17,0,0,1,2.44-6.74c5.75-7.64,21-13.12,39-13.12a73.24,73.24,0,0,1,26,4.41l.61.25C86.06,29.29,91.8,34.74,91.8,40.84Z"/><line class="cls-6" x1="43.57" y1="42.28" x2="6.27" y2="4.98"/><line class="cls-6" x1="56.35" y1="35.09" x2="89.44" y2="2"/><circle class="cls-7" cx="45.7" cy="44.41" r="2.13"/><circle class="cls-7" cx="56.35" cy="35.09" r="2.13"/></g></g></svg>