<svg xmlns="http://www.w3.org/2000/svg" viewBox="0 0 266.48 108.9"><defs><style>.clss-1,.clss-4{fill:#000;}.clss-2{fill:#fff;}.clss-2,.clss-3,.clss-4{stroke:#000;stroke-linecap:round;stroke-linejoin:round;stroke-width:4px;}.clss-3{fill:none;}</style></defs><g id="Layer_2" data-name="Layer 2"><g id="Layer_1-2" data-name="Layer 1"><path class="clss-1" d="M207.94,59.51a13.67,13.67,0,0,1,.88-1.59c.36-.46.72-1,1.13-1.38s.84-.85,1.3-1.24.94-.72,1.43-1a19.14,19.14,0,0,1,6.44-2.63,23.24,23.24,0,0,1,6.65-.19,25,25,0,0,1,3.23.39c1.07.23,2.12.56,3.16.88a13,13,0,0,0,6.2.64c2-.32,4-1.65,5.76-2.44a12.07,12.07,0,0,1,2.74-.81c.91-.2,1.82-.37,2.76-.52,1.88-.31,3.76-.64,6.18-.89h0a.42.42,0,0,1,.46.37,1.1,1.1,0,0,1,0,.18,10.54,10.54,0,0,1-4.58,5.39c-.5.31-1,.58-1.54.84s-1.07.46-1.62.63a10.69,10.69,0,0,1-1.66.44,9.66,9.66,0,0,1-1.7.12c-2.3,0-4.55-1-6.67-1.06a17.18,17.18,0,0,0-6.3.94c-1,.32-2.07.68-3.09.93s-2,.4-3,.58c-2,.35-3.91.79-5.79,1s-3.75.28-5.68.43c-.47,0-.95.09-1.46.12l-1.51.14c-.49.08-1,.12-1.57.18s-1.09.15-1.7.19h0a.39.39,0,0,1-.42-.37A.38.38,0,0,1,207.94,59.51Z"/><path class="clss-1" d="M148.69,10.82a29.72,29.72,0,0,0-13.75,6.7,39,39,0,0,0-9.11,12.16,48.67,48.67,0,0,0-4.4,14.5,54.4,54.4,0,0,0,0,15.08,48.34,48.34,0,0,0,4.29,14.26,38.29,38.29,0,0,0,8.56,11.72,26.71,26.71,0,0,0,12.21,6.57A23.37,23.37,0,0,0,160,90.73a28.81,28.81,0,0,0,11.24-8.16,41.84,41.84,0,0,0,7.3-12.47,48.93,48.93,0,0,0,3-14.41,51.27,51.27,0,0,0-1.19-14.77,44.14,44.14,0,0,0-5.63-13.61,34.14,34.14,0,0,0-10.05-10.39,24.74,24.74,0,0,0-13.52-4.2,25,25,0,0,0-13.71,4.4,38,38,0,0,0-5.8,4.82,39.74,39.74,0,0,0-4.73,6c-.74,1-1.32,2.19-2,3.3s-1.14,2.3-1.65,3.47-1,2.39-1.32,3.63l-.56,1.85L121,42.05a51.81,51.81,0,0,0,2.61,30.51A38.78,38.78,0,0,0,132,85.3a28.65,28.65,0,0,0,6,4.53,26.17,26.17,0,0,0,6.89,2.79,27.24,27.24,0,0,0,7.28.76A24.63,24.63,0,0,0,159.25,92a30.08,30.08,0,0,0,3.3-1.42,26.62,26.62,0,0,0,3-1.9,30.3,30.3,0,0,0,2.8-2.28c.85-.87,1.74-1.69,2.52-2.63s1.53-1.91,2.28-2.87,1.4-2,2-3.12a52,52,0,0,0,3.24-6.67c.42-1.17.89-2.32,1.22-3.52.17-.6.37-1.19.52-1.79l.44-1.81c.16-.6.26-1.22.38-1.83l.35-1.83c.14-1.24.38-2.47.43-3.71a46.81,46.81,0,0,0-1.08-14.82,47,47,0,0,0-5.45-13.86A35.79,35.79,0,0,0,165.4,17a16.51,16.51,0,0,0-1.53-1,14.23,14.23,0,0,0-1.51-.85,5.45,5.45,0,0,0-2.65-.59,1.66,1.66,0,0,0-.82.27,2,2,0,0,0-.61.77,4.42,4.42,0,0,0-.21,2.71,9.33,9.33,0,0,0,1.22,3,14,14,0,0,0,2.29,2.6,10.14,10.14,0,0,0,6.35,2.53,10.29,10.29,0,0,0,6.64-2.45,16.36,16.36,0,0,0,4.6-6,.35.35,0,0,1,.46-.17.33.33,0,0,1,.19.42,17,17,0,0,1-4.15,7A12.21,12.21,0,0,1,168,29a12.88,12.88,0,0,1-8.36-2.51,15.1,15.1,0,0,1-3.19-3.1,12.67,12.67,0,0,1-2-4.16,8.4,8.4,0,0,1,.14-5.09,6,6,0,0,1,1.67-2.42A5.82,5.82,0,0,1,159,10.4a9.43,9.43,0,0,1,5.08.66,17.94,17.94,0,0,1,2,1A19.12,19.12,0,0,1,168,13.11a38.71,38.71,0,0,1,11.84,12c12.27,18.8,10.9,45.71-4.6,62.61a32.38,32.38,0,0,1-6.6,5.5,32.76,32.76,0,0,1-3.81,2.09l-2,.81c-.66.28-1.38.43-2.07.65a29.06,29.06,0,0,1-8.53,1.06,30.57,30.57,0,0,1-15.94-5.11,32.32,32.32,0,0,1-6.33-5.37,43.5,43.5,0,0,1-8.46-13.9,58.12,58.12,0,0,1-3.63-15.73,56.29,56.29,0,0,1,.79-16.12,48.5,48.5,0,0,1,5.75-15.2,47.39,47.39,0,0,1,4.77-6.7A41.39,41.39,0,0,1,135.22,14a28.17,28.17,0,0,1,32.38-1.86,38.69,38.69,0,0,1,12.3,11.78,49.81,49.81,0,0,1,6.86,15.41,57.57,57.57,0,0,1-1.38,33.3,46.16,46.16,0,0,1-8.53,14.84c-.48.54-.92,1.12-1.45,1.63l-1.57,1.52a34.15,34.15,0,0,1-3.39,2.81,15.53,15.53,0,0,1-1.83,1.25l-1.89,1.17c-1.33.67-2.68,1.33-4.07,1.87A30.89,30.89,0,0,1,144.9,98.8a32.44,32.44,0,0,1-15.22-8.62,44.39,44.39,0,0,1-9.59-14.06A53.48,53.48,0,0,1,116,59.91a56.2,56.2,0,0,1,.87-16.53A49.88,49.88,0,0,1,122.68,28a39.67,39.67,0,0,1,10.86-12.23,32.18,32.18,0,0,1,7.18-3.88,28.34,28.34,0,0,1,7.89-1.75.35.35,0,0,1,.38.31.34.34,0,0,1-.28.38Z"/><path class="clss-1" d="M201.47,27.12a6.83,6.83,0,0,1,4.84,2.1,7.17,7.17,0,0,1,2.06,5.38,8.31,8.31,0,0,1-2.56,5.51,8,8,0,0,1-6.14,2.18,9.93,9.93,0,0,1-5.89-2.54,10.81,10.81,0,0,1-3.47-5.54,12.7,12.7,0,0,1,.18-6.43,15.65,15.65,0,0,1,2.83-5.45,17.68,17.68,0,0,1,4.51-4A23.64,23.64,0,0,1,203,16a47,47,0,0,1,10.19-1.89,58.47,58.47,0,0,0,9-1.34,6.86,6.86,0,0,0,2.83-1.3,2.16,2.16,0,0,0,.55-.77,1.43,1.43,0,0,0,.14-.51l2.76,2a4.65,4.65,0,0,0-3.7,1.65,10.11,10.11,0,0,0-2.48,4.91,56.65,56.65,0,0,0-1,6.54c-.24,2.27-.47,4.53-.64,6.8-.36,4.53-.57,9.07-.54,13.62s.3,9.11.54,13.67.42,9.12.3,13.66a66.38,66.38,0,0,1-1.52,14,27.48,27.48,0,0,1-2.72,7,19.79,19.79,0,0,1-2.23,3.18,18.24,18.24,0,0,1-2.82,2.6,16.15,16.15,0,0,1-6.85,3.1,11,11,0,0,1-7.2-1,.34.34,0,0,1-.15-.47.35.35,0,0,1,.36-.19h0c4.48.61,8.39-1.61,11.11-4.53a19.58,19.58,0,0,0,1.83-2.38,17,17,0,0,0,1.34-2.62,26.8,26.8,0,0,0,1.64-5.9c.71-4.12.68-8.53.94-13.09s.77-9.07,1.39-13.59,1.27-9,1.64-13.58.54-9.08.54-13.63c0-2.27,0-4.55-.09-6.82a66.14,66.14,0,0,1,0-7.06,18.06,18.06,0,0,1,.67-3.81,12.54,12.54,0,0,1,1.84-3.79,11.51,11.51,0,0,1,3.27-3,9.14,9.14,0,0,1,4.74-1.33A2.89,2.89,0,0,1,231.31,8l.06.17a7,7,0,0,1,.15,4.25,8.45,8.45,0,0,1-1.85,3.38,13,13,0,0,1-5.53,3.37,58.12,58.12,0,0,1-10,2.15,61.38,61.38,0,0,0-8.8,1.76,14.82,14.82,0,0,0-6.55,3.77A7.84,7.84,0,0,0,196.41,33a5.12,5.12,0,0,0,1.25,2.74,5.4,5.4,0,0,0,1.23,1.06,4.51,4.51,0,0,0,1.4.63,3.46,3.46,0,0,0,2.87-.45,4.75,4.75,0,0,0,2.05-2.75c.77-2.25-.89-5.43-3.83-6.37h0a.35.35,0,0,1-.23-.45A.35.35,0,0,1,201.47,27.12Z"/><path class="clss-1" d="M255.05,8.53c0,2.48-.17,4.91-.35,7.33s-.4,4.81-.67,7.19q-.76,7.15-1.87,14.2c-.74,4.7-1.76,9.35-2.7,14-.48,2.33-.89,4.68-1.44,7s-1.14,4.66-1.69,7a62.53,62.53,0,0,0-2,14.24,30.46,30.46,0,0,0,.57,7,11.88,11.88,0,0,0,2.4,5.34,5.86,5.86,0,0,0,3.82,1.94,9.79,9.79,0,0,0,5.17-1,18,18,0,0,0,4.86-3.9c1.56-1.65,3-3.58,4.69-5.44a.38.38,0,0,1,.52,0,.4.4,0,0,1,.11.34,28.39,28.39,0,0,1-2.2,7.21,16.73,16.73,0,0,1-5,6.41,13.41,13.41,0,0,1-8.51,2.68,10.42,10.42,0,0,1-4.77-1.37,9.73,9.73,0,0,1-3.49-3.55,11.3,11.3,0,0,1-1.38-4.31,19.83,19.83,0,0,1,0-4.07c.24-2.6.78-5,1-7.37a97.11,97.11,0,0,0,.43-14.49c0-1.21-.07-2.43-.08-3.65s0-2.44,0-3.65c0-2.44.26-4.85.47-7.27a123.07,123.07,0,0,1,1.9-14.43,106.64,106.64,0,0,1,9.56-27.55.36.36,0,0,1,.49-.15.34.34,0,0,1,.19.31Z"/><path class="clss-2" d="M98.27,37.61c0,5.88-4.57,11.24-12.1,15.32a42.36,42.36,0,0,1-4.22,2h0a78.22,78.22,0,0,1-23.79,5.44q-3.79.3-7.76.32h-.26q-2,0-4-.09a93.23,93.23,0,0,1-14-1.59,64,64,0,0,1-18-6.1C7.61,49.41,3.31,44.94,2.25,40A11.89,11.89,0,0,1,2,37.61a12.93,12.93,0,0,1,2.85-7.84c6.68-8.89,24.44-15.25,45.29-15.25,11.47,0,22,1.91,30.25,5.13l.71.29C91.6,24.18,98.27,30.52,98.27,37.61Z"/><path class="clss-2" d="M50.14,60.71V106.9a100.52,100.52,0,0,1-11-.61q-3.64-.42-7.07-1.08a63.65,63.65,0,0,1-18-6.09c-6.49-3.52-10.79-8-11.85-12.93A11.89,11.89,0,0,1,2,83.8V37.61A11.89,11.89,0,0,0,2.25,40c1.06,4.94,5.36,9.41,11.85,12.93a64,64,0,0,0,18,6.1,93.23,93.23,0,0,0,14,1.59,1.24,1.24,0,0,1,0,.16C47.48,60.73,48.81,60.71,50.14,60.71Z"/><path class="clss-2" d="M50.4,60.71c-.17,1.78-.26,3.6-.26,5.44V60.71Z"/><path class="clss-2" d="M98.27,37.61V83.8c0,5.88-4.57,11.24-12.1,15.32a44.7,44.7,0,0,1-4.22,2h0a70.71,70.71,0,0,1-14.55,4.22,87.78,87.78,0,0,1-9.24,1.21c-2.61.22-5.29.33-8,.33V66.15c0-1.84.09-3.66.26-5.44q4,0,7.76-.32A78.22,78.22,0,0,0,82,55h0a42.36,42.36,0,0,0,4.22-2C93.7,48.85,98.27,43.49,98.27,37.61Z"/><line class="clss-3" x1="2" y1="37.61" x2="2" y2="36.51"/><line class="clss-3" x1="98.27" y1="37.61" x2="98.27" y2="36.51"/><line class="clss-3" x1="14.1" y1="99.12" x2="14.1" y2="52.93"/><line class="clss-3" x1="86.17" y1="52.93" x2="86.17" y2="99.12"/><line class="clss-3" x1="32.07" y1="59.03" x2="32.07" y2="105.21"/><line class="clss-3" x1="68.19" y1="59.03" x2="67.4" y2="105.36"/><path class="clss-2" d="M91.8,40.84c0,5.06-3.93,9.67-10.41,13.18-1.13.61-2.34,1.19-3.63,1.73h0A67.34,67.34,0,0,1,57.3,60.43c-2.17.17-4.4.27-6.67.27h-.22c-1.17,0-2.32,0-3.46-.07a79.76,79.76,0,0,1-12.08-1.37A55.2,55.2,0,0,1,19.42,54c-5.59-3-9.28-6.88-10.2-11.12A10.14,10.14,0,0,1,9,40.84a11.17,11.17,0,0,1,2.44-6.74c5.75-7.64,21-13.12,39-13.12a73.24,73.24,0,0,1,26,4.41l.61.25C86.06,29.29,91.8,34.74,91.8,40.84Z"/><line class="clss-3" x1="43.57" y1="42.28" x2="6.27" y2="4.98"/><line class="clss-3" x1="56.35" y1="35.09" x2="89.44" y2="2"/><circle class="clss-4" cx="45.7" cy="44.41" r="2.13"/><circle class="clss-4" cx="56.35" cy="35.09" r="2.13"/></g></g></svg>