<svg xmlns="http://www.w3.org/2000/svg" viewBox="0 0 868.89 108.9"><defs><style>.cls-1,.cls-4{fill:#231f20;}.cls-2{fill:#fff;}.cls-2,.cls-3,.cls-4{stroke:#231f20;stroke-linecap:round;stroke-linejoin:round;stroke-width:4px;}.cls-3{fill:none;}</style></defs><g id="Layer_2" data-name="Layer 2"><g id="Layer_1-2" data-name="Layer 1"><path class="cls-1" d="M604.51,61.5a12.92,12.92,0,0,1,.88-1.58c.35-.46.72-1,1.12-1.39s.85-.84,1.3-1.23.94-.73,1.44-1a19.17,19.17,0,0,1,6.43-2.63,23.69,23.69,0,0,1,6.66-.2,25,25,0,0,1,3.23.4c1.06.22,2.11.56,3.16.88a12.94,12.94,0,0,0,6.19.63c2.05-.32,4-1.65,5.77-2.43a10.94,10.94,0,0,1,2.73-.81c.91-.2,1.83-.37,2.76-.52,1.89-.32,3.77-.64,6.19-.89h0a.41.41,0,0,1,.45.37.32.32,0,0,1,0,.17,10.54,10.54,0,0,1-4.57,5.4c-.5.3-1,.58-1.55.84s-1.06.46-1.61.63a12.32,12.32,0,0,1-1.66.44,10.93,10.93,0,0,1-1.71.12c-2.3,0-4.55-1-6.66-1.06a17.23,17.23,0,0,0-6.31.94c-1,.32-2.07.68-3.09.92s-2,.41-3,.58c-2,.36-3.9.79-5.79,1s-3.75.28-5.67.42l-1.46.13c-.49,0-1,.1-1.51.13s-1,.13-1.58.18-1.09.15-1.69.19h0a.42.42,0,0,1-.43-.38A.43.43,0,0,1,604.51,61.5Z"/><path class="cls-1" d="M396,58.24a10.57,10.57,0,0,1,1.68-1.67,11.87,11.87,0,0,1,1.74-1.21,10.5,10.5,0,0,1,7.41-1.52,10.75,10.75,0,0,1,1.93.25,18.42,18.42,0,0,1,2,.65,5.72,5.72,0,0,0,3.84.29c1.22-.37,2.32-1.66,3.5-2.27a3.94,3.94,0,0,1,1.85-.44,9,9,0,0,1,1.92.15,8.68,8.68,0,0,1,4,1.86.51.51,0,0,1,.09.7,8.61,8.61,0,0,1-3.43,2.84,8.89,8.89,0,0,1-1.81.64,3.93,3.93,0,0,1-1.9,0c-1.3-.28-2.7-1.24-4-1.29a5.74,5.74,0,0,0-3.64,1.28,19.93,19.93,0,0,1-1.75,1.13,11,11,0,0,1-1.8.73,12.81,12.81,0,0,1-3.69.92,12.66,12.66,0,0,1-3.86-.48,12.07,12.07,0,0,1-2-.72,10.63,10.63,0,0,1-2.05-1.18.49.49,0,0,1-.1-.69Z"/><path class="cls-1" d="M793.39,57.41a10.56,10.56,0,0,1,1.68-1.67,11.71,11.71,0,0,1,1.75-1.21,13,13,0,0,1,3.61-1.46,12.65,12.65,0,0,1,3.79-.06,12,12,0,0,1,1.94.24c.65.16,1.32.42,2,.65a5.73,5.73,0,0,0,3.84.3c1.22-.38,2.32-1.66,3.51-2.27a3.9,3.9,0,0,1,1.84-.44,8.37,8.37,0,0,1,1.92.14,8.74,8.74,0,0,1,4,1.87.5.5,0,0,1,.09.69A8.71,8.71,0,0,1,820,57a8.93,8.93,0,0,1-1.82.63,3.77,3.77,0,0,1-1.89,0c-1.31-.29-2.7-1.24-4-1.29a5.67,5.67,0,0,0-3.64,1.27,20.07,20.07,0,0,1-1.75,1.14,11.62,11.62,0,0,1-1.81.73,12.67,12.67,0,0,1-3.68.92,13.08,13.08,0,0,1-3.87-.48,12,12,0,0,1-2-.72,10.54,10.54,0,0,1-2.06-1.19.49.49,0,0,1-.1-.68Z"/><path class="cls-1" d="M148.69,10.82a29.72,29.72,0,0,0-13.75,6.7,39,39,0,0,0-9.11,12.16,48.67,48.67,0,0,0-4.4,14.5,54.4,54.4,0,0,0,0,15.08,48.34,48.34,0,0,0,4.29,14.26,38.29,38.29,0,0,0,8.56,11.72,26.71,26.71,0,0,0,12.21,6.57A23.37,23.37,0,0,0,160,90.73a28.81,28.81,0,0,0,11.24-8.16,41.84,41.84,0,0,0,7.3-12.47,48.93,48.93,0,0,0,3-14.41,51.27,51.27,0,0,0-1.19-14.77,44.14,44.14,0,0,0-5.63-13.61,34.14,34.14,0,0,0-10.05-10.39,24.74,24.74,0,0,0-13.52-4.2,25,25,0,0,0-13.71,4.4,38,38,0,0,0-5.8,4.82,39.74,39.74,0,0,0-4.73,6c-.74,1-1.32,2.19-2,3.3s-1.14,2.3-1.65,3.47-1,2.39-1.32,3.63l-.56,1.85L121,42.05a51.81,51.81,0,0,0,2.61,30.51A38.78,38.78,0,0,0,132,85.3a28.65,28.65,0,0,0,6,4.53,26.17,26.17,0,0,0,6.89,2.79,27.24,27.24,0,0,0,7.28.76A25,25,0,0,0,159.25,92a30.08,30.08,0,0,0,3.3-1.42,26.62,26.62,0,0,0,3-1.9,30.3,30.3,0,0,0,2.8-2.28c.85-.87,1.74-1.69,2.52-2.63s1.53-1.91,2.28-2.87,1.4-2,2-3.12a52,52,0,0,0,3.24-6.67c.42-1.17.89-2.32,1.22-3.52.17-.6.37-1.19.52-1.79l.44-1.81c.16-.6.26-1.22.38-1.83l.35-1.83c.14-1.24.38-2.47.43-3.71a46.81,46.81,0,0,0-1.08-14.82,47,47,0,0,0-5.45-13.86A35.79,35.79,0,0,0,165.4,17a16.51,16.51,0,0,0-1.53-1,14.23,14.23,0,0,0-1.51-.85,5.45,5.45,0,0,0-2.65-.59,1.66,1.66,0,0,0-.82.27,2,2,0,0,0-.61.77,4.42,4.42,0,0,0-.21,2.71,9.33,9.33,0,0,0,1.22,3,14,14,0,0,0,2.29,2.6,10.14,10.14,0,0,0,6.35,2.53,10.29,10.29,0,0,0,6.64-2.45,16.36,16.36,0,0,0,4.6-6,.35.35,0,0,1,.46-.17.33.33,0,0,1,.19.42,17,17,0,0,1-4.15,7A12.21,12.21,0,0,1,168,29a12.88,12.88,0,0,1-8.36-2.51,15.1,15.1,0,0,1-3.19-3.1,12.67,12.67,0,0,1-2-4.16,8.4,8.4,0,0,1,.14-5.09,6,6,0,0,1,1.67-2.42A5.82,5.82,0,0,1,159,10.4a9.43,9.43,0,0,1,5.08.66,17.94,17.94,0,0,1,2,1A19.12,19.12,0,0,1,168,13.11a38.71,38.71,0,0,1,11.84,12c12.27,18.8,10.9,45.71-4.6,62.61a32.38,32.38,0,0,1-6.6,5.5,32.76,32.76,0,0,1-3.81,2.09l-2,.81c-.66.28-1.38.43-2.07.65a29.06,29.06,0,0,1-8.53,1.06,30.57,30.57,0,0,1-15.94-5.11,32.32,32.32,0,0,1-6.33-5.37,43.5,43.5,0,0,1-8.46-13.9,58.12,58.12,0,0,1-3.63-15.73,56.29,56.29,0,0,1,.79-16.12,48.5,48.5,0,0,1,5.75-15.2,47.39,47.39,0,0,1,4.77-6.7A41.39,41.39,0,0,1,135.22,14a28.17,28.17,0,0,1,32.38-1.86,38.69,38.69,0,0,1,12.3,11.78,49.81,49.81,0,0,1,6.86,15.41,57.57,57.57,0,0,1-1.38,33.3,46.16,46.16,0,0,1-8.53,14.84c-.48.54-.92,1.12-1.45,1.63l-1.57,1.52a34.15,34.15,0,0,1-3.39,2.81,15.53,15.53,0,0,1-1.83,1.25l-1.89,1.17c-1.33.67-2.68,1.33-4.07,1.87A30.89,30.89,0,0,1,144.9,98.8a32.44,32.44,0,0,1-15.22-8.62,44.39,44.39,0,0,1-9.59-14.06A53.48,53.48,0,0,1,116,59.91a56.2,56.2,0,0,1,.87-16.53A49.88,49.88,0,0,1,122.68,28a39.67,39.67,0,0,1,10.86-12.23,32.18,32.18,0,0,1,7.18-3.88,28.34,28.34,0,0,1,7.89-1.75.35.35,0,0,1,.38.31.34.34,0,0,1-.28.38Z"/><path class="cls-1" d="M598,29.12a6.76,6.76,0,0,1,4.83,2.1,7.17,7.17,0,0,1,2.07,5.38,8.43,8.43,0,0,1-2.56,5.51,8,8,0,0,1-6.14,2.17,10,10,0,0,1-5.9-2.53,10.92,10.92,0,0,1-3.47-5.54,12.7,12.7,0,0,1,.19-6.43,15.49,15.49,0,0,1,2.83-5.45,17.68,17.68,0,0,1,4.5-4A23.89,23.89,0,0,1,599.55,18a46.22,46.22,0,0,1,10.18-1.89,58.41,58.41,0,0,0,9-1.34,6.92,6.92,0,0,0,2.83-1.3,2.48,2.48,0,0,0,.55-.78,1.26,1.26,0,0,0,.13-.5l2.76,2a4.68,4.68,0,0,0-3.7,1.64,10.15,10.15,0,0,0-2.47,4.91,55,55,0,0,0-1,6.55c-.24,2.26-.48,4.53-.64,6.8-.36,4.53-.57,9.07-.54,13.62s.3,9.11.53,13.67.43,9.12.31,13.66a65.76,65.76,0,0,1-1.53,14,26.89,26.89,0,0,1-2.72,7A19.64,19.64,0,0,1,611,99.25a18.78,18.78,0,0,1-2.82,2.61,16.32,16.32,0,0,1-6.86,3.1,11.08,11.08,0,0,1-7.2-1,.35.35,0,0,1,.21-.66h0c4.48.61,8.39-1.62,11.12-4.54a19.72,19.72,0,0,0,1.83-2.37,17.55,17.55,0,0,0,1.34-2.63,27.35,27.35,0,0,0,1.63-5.9c.72-4.11.69-8.52,1-13.08s.77-9.07,1.39-13.59,1.26-9,1.63-13.58.55-9.08.55-13.63c0-2.27,0-4.55-.09-6.83a65.85,65.85,0,0,1-.05-7,18.09,18.09,0,0,1,.68-3.81,12.17,12.17,0,0,1,1.83-3.79,11.5,11.5,0,0,1,3.27-3,9.1,9.1,0,0,1,4.74-1.33,2.88,2.88,0,0,1,2.7,1.87l.06.17a7,7,0,0,1,.14,4.26,8.28,8.28,0,0,1-1.85,3.38,12.86,12.86,0,0,1-5.52,3.37,58.42,58.42,0,0,1-10.06,2.15,60.3,60.3,0,0,0-8.8,1.76,14.72,14.72,0,0,0-6.54,3.77,7.76,7.76,0,0,0-2.33,6,4.92,4.92,0,0,0,1.25,2.74,5.12,5.12,0,0,0,1.22,1.06,4.51,4.51,0,0,0,1.4.64,3.52,3.52,0,0,0,2.88-.46,4.73,4.73,0,0,0,2-2.75c.76-2.24-.9-5.43-3.83-6.36h0a.36.36,0,0,1-.22-.45A.33.33,0,0,1,598,29.12Z"/><path class="cls-1" d="M651.62,10.53c0,2.48-.18,4.91-.35,7.32s-.4,4.82-.67,7.2c-.52,4.77-1.13,9.5-1.87,14.2S647,48.6,646,53.27c-.47,2.34-.89,4.69-1.43,7s-1.14,4.67-1.7,7a62.51,62.51,0,0,0-2,14.23,30.55,30.55,0,0,0,.57,7,11.88,11.88,0,0,0,2.4,5.34,5.88,5.88,0,0,0,3.82,1.94,9.77,9.77,0,0,0,5.16-1.06,17.81,17.81,0,0,0,4.86-3.89c1.56-1.66,3-3.58,4.7-5.44a.36.36,0,0,1,.51,0,.37.37,0,0,1,.12.34,28.73,28.73,0,0,1-2.2,7.2,16.62,16.62,0,0,1-5.06,6.42,13.32,13.32,0,0,1-8.51,2.67,10.26,10.26,0,0,1-4.76-1.37,9.65,9.65,0,0,1-3.5-3.54,11.35,11.35,0,0,1-1.38-4.32,19.71,19.71,0,0,1,0-4.06c.24-2.61.78-5,1-7.37a97.19,97.19,0,0,0,.44-14.49c0-1.22-.08-2.44-.09-3.65s0-2.44,0-3.65c0-2.44.25-4.85.46-7.27a127.16,127.16,0,0,1,1.9-14.43,106.74,106.74,0,0,1,9.57-27.56.36.36,0,0,1,.68.17Z"/><path class="cls-1" d="M181.2,95.75A136.19,136.19,0,0,0,195.35,77.1a110.55,110.55,0,0,0,5.52-10c.44-.84.83-1.7,1.24-2.55s.77-1.64,1.08-2.43a11.76,11.76,0,0,0,1-4.24,3.43,3.43,0,0,0-.29-1.41,5.76,5.76,0,0,0-.31-.5,2,2,0,0,0-.44-.37,3.27,3.27,0,0,0-2.78-.25,2.07,2.07,0,0,0-1.05.83,3.33,3.33,0,0,0-.59,1.65,3.66,3.66,0,0,0,.27,1.86,3.46,3.46,0,0,0,1.32,1.48,9.24,9.24,0,0,0,5.08,1c1.91-.08,3.94-.33,5.9-.57A93,93,0,0,0,223,59.2a1.84,1.84,0,0,1,2.24,1.3,1.8,1.8,0,0,1,0,1.08l-.17.5c-1.18,3.29-2.06,6.64-3,9.92s-1.94,6.54-2.71,9.88c-.21.83-.39,1.68-.57,2.5a21,21,0,0,0-.39,2.28,5.6,5.6,0,0,0,.5,3.51,5.64,5.64,0,0,0,7.69,1.13h0a.35.35,0,0,1,.5.07.38.38,0,0,1,0,.37A6.45,6.45,0,0,1,222,95a8,8,0,0,1-6.36-2A9.33,9.33,0,0,1,213,86.6a23.21,23.21,0,0,1,.08-3c.1-.94.2-1.85.33-2.77A48.86,48.86,0,0,1,216.16,70a49,49,0,0,1,5.31-9.75l2,2.88a91.59,91.59,0,0,0-12,.54c-2,.22-3.91.52-6,.83a14.12,14.12,0,0,1-6.66-.31c-5.2-1.61-7.13-9.84-1.57-13.75a8.88,8.88,0,0,1,8.67-.59,8.52,8.52,0,0,1,2,1.3A9.38,9.38,0,0,1,209.58,53a10.13,10.13,0,0,1,1.52,4.22,16.72,16.72,0,0,1-.93,7.44,30.62,30.62,0,0,1-1.24,3.07c-.42,1-.89,1.89-1.37,2.82a60.17,60.17,0,0,1-6.88,10.39,56.76,56.76,0,0,1-19.06,15.39.36.36,0,0,1-.48-.17A.37.37,0,0,1,181.2,95.75Z"/><path class="cls-1" d="M271.35,83.87A17.18,17.18,0,0,1,266.69,91a20.9,20.9,0,0,1-16.77,5.42,22.48,22.48,0,0,1-8.78-3.07,23.25,23.25,0,0,1-3.72-2.83,23.44,23.44,0,0,1-7.23-16.61,19.85,19.85,0,0,1,.39-4.49,23.09,23.09,0,0,1,3.32-8.17,28.16,28.16,0,0,1,5.73-6.31,34,34,0,0,1,7-4.45,33.2,33.2,0,0,1,8.05-2.72,17.47,17.47,0,0,1,9.09.4,12.2,12.2,0,0,1,4.37,2.63A11.45,11.45,0,0,1,271,55.23a10.3,10.3,0,0,1,.42,5.5,8.8,8.8,0,0,1-2.87,4.93,9.11,9.11,0,0,1-4.92,2.17,8,8,0,0,1-5.17-1.11,7.37,7.37,0,0,1-3.31-8.22.35.35,0,0,1,.45-.23.35.35,0,0,1,.24.27v0a6.21,6.21,0,0,0,4.26,4.79,4.7,4.7,0,0,0,4.67-1.62,3.51,3.51,0,0,0,.79-2,5.08,5.08,0,0,0-.4-2.34,8.06,8.06,0,0,0-3.69-3.9,17.08,17.08,0,0,0-20.28,3.14,16.74,16.74,0,0,0-2.32,2.95,19.93,19.93,0,0,0-1.58,3.34A22.84,22.84,0,0,0,236.17,70a21.86,21.86,0,0,0,.94,6.79,19.58,19.58,0,0,0,8,10.2,18.53,18.53,0,0,0,12.67,3.1,21.61,21.61,0,0,0,12.95-6.57h0a.36.36,0,0,1,.6.36Z"/><path class="cls-1" d="M280.4,63.74a125,125,0,0,0,18.33-33.42c1.06-3,2-6,2.83-9l.58-2.28.52-2.29.26-1.12a7.54,7.54,0,0,0,.12-.83,1.56,1.56,0,0,0,0-.71,1,1,0,0,0,.29.45,1.34,1.34,0,0,0,.61.34,1.22,1.22,0,0,0,.46,0s0,0-.15.09a3.86,3.86,0,0,0-.86.8l-.1.13-.15.2-.29.42c-.21.27-.38.57-.58.85a34.75,34.75,0,0,0-3.53,7.93c-.93,2.9-1.77,6-2.64,9.15l-2.61,9.35c-1.76,6.24-3.5,12.48-5.39,18.68-3.77,12.41-8,24.68-11.32,37.22v0a1.09,1.09,0,1,1-2.1-.55c1.15-4.47,2.18-9,3.42-13.48a86.26,86.26,0,0,1,4.62-13.36,43.7,43.7,0,0,1,8-12.17,32,32,0,0,1,5.78-4.85,18.27,18.27,0,0,1,3.67-1.85,12.55,12.55,0,0,1,4.44-.79,10.88,10.88,0,0,1,4.68,1,9.24,9.24,0,0,1,3.83,3.43,9.93,9.93,0,0,1,1.43,4.7,15.62,15.62,0,0,1-.38,4.24,43.45,43.45,0,0,1-2.44,7c-.87,2.14-1.74,4.27-2.66,6.39l-2.73,6.37c-.91,2.09-2,4.27-2.67,6.19a8.81,8.81,0,0,0-.57,2.86,5.16,5.16,0,0,0,.7,2.64A3,3,0,0,0,305.9,99a2.77,2.77,0,0,0,2.64-.86h0a.36.36,0,0,1,.5-.05.36.36,0,0,1,.09.42,3.26,3.26,0,0,1-1.35,1.45,4.65,4.65,0,0,1-1.94.57,5,5,0,0,1-2.06-.36,5.07,5.07,0,0,1-1.74-1.24c-2-2.11-2.18-5.24-1.69-7.71.25-1.26.61-2.42.94-3.53l1-3.32,2.08-6.61c.68-2.2,1.42-4.39,2.15-6.58a39.53,39.53,0,0,0,1.77-6.2,9.3,9.3,0,0,0,.15-2.63,4.12,4.12,0,0,0-.6-1.84,2.79,2.79,0,0,0-1.29-1.07,5,5,0,0,0-2-.42c-2.91-.09-6.79,2.53-10,5.22a44.08,44.08,0,0,0-8.43,10,60.14,60.14,0,0,0-5.73,12.25,123,123,0,0,0-3.62,13.27l-2.11-.52c3.17-12.57,5.34-25.38,8-38.07,1.33-6.35,2.82-12.65,4.28-19l2.21-9.46c.77-3.14,1.43-6.33,2.44-9.61A38.2,38.2,0,0,1,296,13.33c.27-.39.51-.78.8-1.15l.43-.56.22-.29.28-.34a11.09,11.09,0,0,1,2.8-2.36,8.59,8.59,0,0,1,2.07-.85,6.37,6.37,0,0,1,2.87-.07,6,6,0,0,1,4.37,3.89,8.54,8.54,0,0,1,.31,4.08,11.64,11.64,0,0,1-.31,1.56l-.34,1.23-.7,2.41L308,23.27a93.33,93.33,0,0,1-3.66,9.32,92,92,0,0,1-23.4,31.63.35.35,0,0,1-.51-.48Z"/><path class="cls-1" d="M326,75.34A60.71,60.71,0,0,0,333.1,72a48.26,48.26,0,0,0,6.26-4.22,41,41,0,0,0,5.3-5.06,13,13,0,0,0,1.81-2.55,6,6,0,0,0,.72-2.22,1.18,1.18,0,0,0-.24-.87,1.92,1.92,0,0,0-1.18-.56,8.08,8.08,0,0,0-2.73,0,11.18,11.18,0,0,0-1.54.33l-1.72.54a43.39,43.39,0,0,0-12.72,7.42A24.39,24.39,0,0,0,319,77.7a16.13,16.13,0,0,0-.15,7.43,10.39,10.39,0,0,0,3.1,5.52,13,13,0,0,0,5.32,2.78,16.47,16.47,0,0,0,6.58.31,32.36,32.36,0,0,0,7.05-2c2.39-.92,4.8-2.07,7.35-3.09a.36.36,0,0,1,.47.2.36.36,0,0,1-.06.36A35.88,35.88,0,0,1,342.75,95a24.54,24.54,0,0,1-7.66,4.06,18.38,18.38,0,0,1-9.24.45,13.81,13.81,0,0,1-8.31-5A12.08,12.08,0,0,1,315.39,90,16,16,0,0,1,315,85.4a31,31,0,0,1,1.83-8.33,57,57,0,0,1,7.4-14.77A33.87,33.87,0,0,1,329.93,56a32.35,32.35,0,0,1,7.32-4.65l2-.87a20.62,20.62,0,0,1,2.3-.75,14.53,14.53,0,0,1,5.19-.43,9.79,9.79,0,0,1,3,.8,8.93,8.93,0,0,1,2.84,2.07,8.58,8.58,0,0,1,1.73,3.13,8.77,8.77,0,0,1,.3,3.41,12.08,12.08,0,0,1-2,5.23,17.46,17.46,0,0,1-3.18,3.65,34.37,34.37,0,0,1-7.13,4.9,32.49,32.49,0,0,1-8,2.91,27.68,27.68,0,0,1-8.29.65.34.34,0,0,1-.33-.38.37.37,0,0,1,.22-.31Z"/><path class="cls-1" d="M378.76,65a7.41,7.41,0,0,0,5.94-3.2,3.77,3.77,0,0,0-.6-4.6,7.7,7.7,0,0,0-5.17-1.57,13.2,13.2,0,0,0-3.11.36,17,17,0,0,0-3,1,11.25,11.25,0,0,0-4.54,3.54,6.54,6.54,0,0,0-1.15,4.92,5.68,5.68,0,0,0,1.05,2.35A12.29,12.29,0,0,0,370.4,70a34.35,34.35,0,0,0,6.51,3.7c2.44,1.11,5,2.17,7.51,3.53A16.48,16.48,0,0,1,390.84,83a9.09,9.09,0,0,1,1.36,4.52,8.4,8.4,0,0,1-1.56,4.79,15.91,15.91,0,0,1-7.53,5.5,21.76,21.76,0,0,1-8.88,1.33,25.11,25.11,0,0,1-8.72-2A21.12,21.12,0,0,1,361.58,95a13.32,13.32,0,0,1-3.48-3.23,6.41,6.41,0,0,1-1.1-2.49,4.38,4.38,0,0,1-.06-1.5,4,4,0,0,1,.45-1.37,4.23,4.23,0,0,1,1.87-1.83,3.21,3.21,0,0,1,2.42-.2.35.35,0,0,1,.22.46.34.34,0,0,1-.27.23h0a2.41,2.41,0,0,0-1.92,2.18,1.56,1.56,0,0,0,.06.59,2.85,2.85,0,0,0,.25.49,3.94,3.94,0,0,0,.92,1,12.27,12.27,0,0,0,3,1.56A24.5,24.5,0,0,0,367.3,92a29.76,29.76,0,0,0,7.1.89,38.65,38.65,0,0,0,7.05-.7,14.58,14.58,0,0,0,6.27-2.42,4.43,4.43,0,0,0,1.62-2.48,5,5,0,0,0,0-1.59,6.71,6.71,0,0,0-.52-1.63,8.76,8.76,0,0,0-2.26-2.83,12.63,12.63,0,0,0-3.22-1.91,38.2,38.2,0,0,0-7.64-2,29.69,29.69,0,0,1-8.3-2.58,14,14,0,0,1-4-2.92,11.9,11.9,0,0,1-2.75-4.68,13.16,13.16,0,0,1,1.33-10.56,16.23,16.23,0,0,1,7.79-6.5,19.83,19.83,0,0,1,4.7-1.27,18,18,0,0,1,4.92-.05,15.28,15.28,0,0,1,4.86,1.43,10.6,10.6,0,0,1,4.18,3.59,8.19,8.19,0,0,1,1.32,5.52,7.74,7.74,0,0,1-2.44,4.77A8.21,8.21,0,0,1,383,66.15a8.06,8.06,0,0,1-4.4-.52.35.35,0,0,1-.18-.47.34.34,0,0,1,.31-.21Z"/><path class="cls-1" d="M425.71,20.35c-.56,2.19-1.26,4.28-1.95,6.36s-1.41,4.13-2.13,6.17c-1.47,4.07-3,8.08-4.53,12.06s-3.37,7.86-5,11.81c-.82,2-1.61,4-2.5,6l-2.69,5.93A44.64,44.64,0,0,0,403.07,81a14.89,14.89,0,0,0,.47,6.1,8.33,8.33,0,0,0,2.72,4.15,9.53,9.53,0,0,0,4,1.8,13.35,13.35,0,0,0,5.11-.08A27.83,27.83,0,0,0,421,91c1.91-.86,3.86-1.89,6-2.77a.36.36,0,0,1,.48.19.37.37,0,0,1,0,.34,29,29,0,0,1-4.28,5.32,19.58,19.58,0,0,1-6,4,15.1,15.1,0,0,1-7.79,1,12,12,0,0,1-4-1.23A10.36,10.36,0,0,1,402,95.19a10.52,10.52,0,0,1-1.86-3.8,13,13,0,0,1-.39-3.87,38.47,38.47,0,0,1,1.15-6.91,106.13,106.13,0,0,0,2.33-13c.13-1.11.28-2.21.45-3.31s.34-2.2.57-3.28c.41-2.19,1-4.31,1.61-6.45A89.65,89.65,0,0,1,410.22,42a82.61,82.61,0,0,1,6.47-11.63A66.19,66.19,0,0,1,420.62,25a52.93,52.93,0,0,1,4.48-5,.37.37,0,0,1,.52,0,.36.36,0,0,1,.09.34Z"/><path class="cls-1" d="M515.77,55.41a12.62,12.62,0,0,0-9-4,15.63,15.63,0,0,0-4.75.55,14.07,14.07,0,0,0-4.13,2,16.89,16.89,0,0,0-3.37,3.17A20.49,20.49,0,0,0,492,61a29.43,29.43,0,0,0-2.72,9.17,20.81,20.81,0,0,0,.62,9,12.18,12.18,0,0,0,2,3.66,12.57,12.57,0,0,0,3.24,2.9,17.08,17.08,0,0,0,4.13,1.9,20.67,20.67,0,0,0,4.59.76A16.53,16.53,0,0,0,513,86.15a20.51,20.51,0,0,0,9.86-17.24,10.31,10.31,0,0,0-.88-4.82,4.34,4.34,0,0,0-3-2.46,2.29,2.29,0,0,0-1.47.25A3.78,3.78,0,0,0,516.28,63a12.15,12.15,0,0,0-1.89,3.87,36.66,36.66,0,0,0-1.85,9.62,18,18,0,0,0,2,9,12.8,12.8,0,0,0,6.6,6.14,11.78,11.78,0,0,0,9.69-.48h0a.35.35,0,0,1,.48.14.36.36,0,0,1,0,.4A9.91,9.91,0,0,1,529,93.54a12.27,12.27,0,0,1-2.73,1.25,13.53,13.53,0,0,1-6.11.39,16,16,0,0,1-3.06-.84,16.33,16.33,0,0,1-2.82-1.53,17.54,17.54,0,0,1-4.45-4.52,21.11,21.11,0,0,1-3.54-11.91A27.4,27.4,0,0,1,509,64.67a15.45,15.45,0,0,1,3.91-5.32,8.2,8.2,0,0,1,3.41-1.71,6.54,6.54,0,0,1,3.92.32,8,8,0,0,1,4.46,5.09,15.76,15.76,0,0,1,.46,6,31.81,31.81,0,0,1-2.91,11,11.82,11.82,0,0,1-.65,1.28c-.23.42-.44.86-.71,1.26s-.49.83-.75,1.23L519.26,85a26,26,0,0,1-4,4.31,20.41,20.41,0,0,1-5.17,3.21A18.55,18.55,0,0,1,504,94a21.51,21.51,0,0,1-12.25-2.56,18.88,18.88,0,0,1-5.19-4,19.11,19.11,0,0,1-3.56-5.7,24.08,24.08,0,0,1-1.17-12.61,30.66,30.66,0,0,1,4.23-11.47A26.67,26.67,0,0,1,490,52.8a21.47,21.47,0,0,1,5.15-3.65,16.7,16.7,0,0,1,6.09-1.79,17.13,17.13,0,0,1,6.15.47,15.08,15.08,0,0,1,5.42,2.62,11.51,11.51,0,0,1,3.6,4.59.35.35,0,0,1-.19.46A.37.37,0,0,1,515.77,55.41Z"/><path class="cls-1" d="M533.51,78.93c2.22-3.31,4.46-6.55,6.59-9.84s4.19-6.59,6.13-10a223.87,223.87,0,0,0,10.64-20.58c1.63-3.49,3.12-7,4.61-10.59l1.09-2.68,1-2.7a27.08,27.08,0,0,0,1.54-4.93,6.27,6.27,0,0,0,0-1.88,3.44,3.44,0,0,0-.56-1.32,2.35,2.35,0,0,0-.87-.77,1.12,1.12,0,0,0-.33-.1,1.26,1.26,0,0,0-.45,0c-.73.2-1.88,1.53-2.78,3.1s-1.92,3.36-2.81,5.1a89.08,89.08,0,0,0-8.08,22c-1.75,7.67-2.22,15.59-3.26,23.4-.26,2-.56,3.91-.9,5.84s-.67,3.78-.9,5.6a22,22,0,0,0,.7,10.22,12.84,12.84,0,0,0,2.45,4.18,9.77,9.77,0,0,0,1.78,1.56,6.56,6.56,0,0,0,2.09,1c3,.85,7.13,0,9-3.38h0a.36.36,0,0,1,.48-.14.37.37,0,0,1,.18.36,7.75,7.75,0,0,1-3.67,5.26,10.77,10.77,0,0,1-6.59,1.59,10.37,10.37,0,0,1-3.5-.88,13.24,13.24,0,0,1-3-1.87A16.41,16.41,0,0,1,539.91,91,20.12,20.12,0,0,1,538,84.5,30.81,30.81,0,0,1,538,78,55.34,55.34,0,0,1,539,71.9c.4-2,.84-3.86,1.33-5.79,1.94-7.68,4.63-15.24,6.8-22.86s4.21-15.29,6.74-22.92c.62-1.92,1.33-3.8,2-5.69a18.09,18.09,0,0,1,1.51-3.07,8.79,8.79,0,0,1,3-2.93,6.91,6.91,0,0,1,2.36-.83,6.49,6.49,0,0,1,2.6.14,8,8,0,0,1,4,2.46,9.13,9.13,0,0,1,2.11,3.91,12.57,12.57,0,0,1,.31,4,30.35,30.35,0,0,1-1.49,6.49l-.91,2.89-1,2.86a100.46,100.46,0,0,1-4.7,11.18,106,106,0,0,1-5.9,10.57c-1.07,1.72-2.2,3.39-3.33,5.06s-2.36,3.26-3.6,4.85A102.59,102.59,0,0,1,534,79.41a.35.35,0,0,1-.49-.06.35.35,0,0,1,0-.41Z"/><path class="cls-1" d="M676,75.18a59.82,59.82,0,0,0,7.13-3.31,47.7,47.7,0,0,0,6.27-4.22,41.69,41.69,0,0,0,5.3-5.06A13.48,13.48,0,0,0,696.51,60a5.8,5.8,0,0,0,.71-2.22A1.18,1.18,0,0,0,697,57a1.92,1.92,0,0,0-1.18-.56,8,8,0,0,0-2.73,0,13,13,0,0,0-1.54.34l-1.72.54A43.39,43.39,0,0,0,677.1,64.7,24.39,24.39,0,0,0,669,77.54a16.13,16.13,0,0,0-.15,7.43,10.39,10.39,0,0,0,3.1,5.52,13,13,0,0,0,5.32,2.78,16.47,16.47,0,0,0,6.58.31,32.36,32.36,0,0,0,7-2c2.39-.92,4.8-2.07,7.35-3.09a.36.36,0,0,1,.47.2.36.36,0,0,1-.06.36,35.55,35.55,0,0,1-5.9,5.79,24.37,24.37,0,0,1-7.65,4.06,18.49,18.49,0,0,1-9.24.45,13.86,13.86,0,0,1-8.32-5,12.22,12.22,0,0,1-2.14-4.47,15.63,15.63,0,0,1-.41-4.62,31,31,0,0,1,1.83-8.33,57.25,57.25,0,0,1,7.39-14.77A34.28,34.28,0,0,1,680,55.82a32.35,32.35,0,0,1,7.32-4.65l2-.87a21.15,21.15,0,0,1,2.29-.75,14.39,14.39,0,0,1,5.2-.43,9.79,9.79,0,0,1,3,.8A8.93,8.93,0,0,1,702.64,52a8.58,8.58,0,0,1,1.73,3.13,9,9,0,0,1,.3,3.41,12.2,12.2,0,0,1-2,5.23,17.75,17.75,0,0,1-3.18,3.65,34.37,34.37,0,0,1-7.13,4.9,32.49,32.49,0,0,1-8,2.91,27.68,27.68,0,0,1-8.29.65.34.34,0,0,1-.33-.38.37.37,0,0,1,.22-.31Z"/><path class="cls-1" d="M742,57.89a12.66,12.66,0,0,0-9-4,15.63,15.63,0,0,0-4.75.56,13.59,13.59,0,0,0-4.13,2,16.33,16.33,0,0,0-3.37,3.17,19.63,19.63,0,0,0-2.55,3.95,28.91,28.91,0,0,0-2.72,9.17,20.5,20.5,0,0,0,.62,9,11.76,11.76,0,0,0,2,3.66,12.19,12.19,0,0,0,3.23,2.9,17.05,17.05,0,0,0,4.13,1.9,20.2,20.2,0,0,0,4.59.76,16.58,16.58,0,0,0,9.19-2.27,20.52,20.52,0,0,0,9.86-17.23,10.57,10.57,0,0,0-.88-4.82,4.42,4.42,0,0,0-3-2.47,2.37,2.37,0,0,0-1.47.25,3.78,3.78,0,0,0-1.24,1.07,12.1,12.1,0,0,0-1.89,3.88,36.57,36.57,0,0,0-1.84,9.61,17.9,17.9,0,0,0,2,9,12.8,12.8,0,0,0,6.6,6.14,11.74,11.74,0,0,0,9.69-.48h0a.35.35,0,0,1,.48.15.33.33,0,0,1,0,.39A10,10,0,0,1,755.3,96a13,13,0,0,1-2.73,1.25,13.66,13.66,0,0,1-6.11.38,13.84,13.84,0,0,1-5.87-2.37,17.38,17.38,0,0,1-4.45-4.52,21,21,0,0,1-3.55-11.91,27.19,27.19,0,0,1,2.65-11.7,15.36,15.36,0,0,1,3.9-5.33,8.3,8.3,0,0,1,3.42-1.71,6.44,6.44,0,0,1,3.91.33,8,8,0,0,1,4.46,5.08,15.56,15.56,0,0,1,.46,6,31.69,31.69,0,0,1-2.91,11c-.19.44-.41.87-.64,1.29s-.45.85-.71,1.25-.49.83-.76,1.23l-.83,1.2a26.91,26.91,0,0,1-4,4.31A20.93,20.93,0,0,1,736.34,95a18.67,18.67,0,0,1-6.05,1.54,21.75,21.75,0,0,1-6.28-.35A22.24,22.24,0,0,1,718,94a18.88,18.88,0,0,1-5.19-4,19.31,19.31,0,0,1-3.56-5.7,24.08,24.08,0,0,1-1.17-12.61,31,31,0,0,1,4.23-11.47,26.72,26.72,0,0,1,3.9-4.87,21.9,21.9,0,0,1,5.14-3.65,17.3,17.3,0,0,1,12.24-1.31,15,15,0,0,1,5.43,2.62,11.54,11.54,0,0,1,3.59,4.58.35.35,0,0,1-.19.46A.37.37,0,0,1,742,57.89Z"/><path class="cls-1" d="M758.47,80.41c2.22-3.32,4.46-6.55,6.59-9.85s4.19-6.59,6.13-10A224,224,0,0,0,781.83,40c1.63-3.48,3.12-7,4.62-10.58l1.08-2.68,1-2.71a25.37,25.37,0,0,0,1.54-4.93,6.27,6.27,0,0,0,0-1.88,3.34,3.34,0,0,0-.56-1.31,2.18,2.18,0,0,0-.87-.77,1.12,1.12,0,0,0-.33-.1,1.07,1.07,0,0,0-.45,0c-.73.19-1.88,1.52-2.78,3.09s-1.92,3.37-2.81,5.1a89.08,89.08,0,0,0-8.08,22C772.48,53,772,60.89,771,68.7c-.26,2-.56,3.91-.9,5.84s-.67,3.78-.9,5.6a21.93,21.93,0,0,0,.7,10.21,13,13,0,0,0,2.45,4.19,9.71,9.71,0,0,0,1.78,1.55,6.8,6.8,0,0,0,2.09,1c3,.84,7.13,0,9-3.38h0a.34.34,0,0,1,.48-.14.36.36,0,0,1,.18.36,7.79,7.79,0,0,1-3.67,5.26,10.89,10.89,0,0,1-10.09.71,13.83,13.83,0,0,1-3-1.87,16.44,16.44,0,0,1-4.22-5.5A20.24,20.24,0,0,1,763,86a30.82,30.82,0,0,1,0-6.51,55,55,0,0,1,.93-6.09c.4-1.95.84-3.87,1.33-5.79,1.94-7.69,4.63-15.24,6.8-22.86s4.21-15.29,6.74-22.93c.62-1.91,1.33-3.8,2-5.69a18,18,0,0,1,1.51-3.06,8.91,8.91,0,0,1,3-2.94,7.2,7.2,0,0,1,2.36-.83,6.67,6.67,0,0,1,2.6.14,8.13,8.13,0,0,1,4,2.46,9.23,9.23,0,0,1,2.1,3.91,12.36,12.36,0,0,1,.31,4,30,30,0,0,1-1.49,6.49l-.91,2.89-1,2.86a102.17,102.17,0,0,1-4.69,11.17,107.09,107.09,0,0,1-5.91,10.58c-1.07,1.71-2.2,3.38-3.33,5.05s-2.36,3.27-3.6,4.86A102.15,102.15,0,0,1,759,80.88a.34.34,0,0,1-.49,0,.36.36,0,0,1,0-.42Z"/><path class="cls-1" d="M430.45,96.15a136.35,136.35,0,0,0,14.16-18.66,112.89,112.89,0,0,0,5.52-10c.43-.84.83-1.7,1.23-2.56s.78-1.64,1.08-2.42a11.63,11.63,0,0,0,1-4.24,3.55,3.55,0,0,0-.3-1.41,3,3,0,0,0-.3-.5,2.08,2.08,0,0,0-.44-.38,3.3,3.3,0,0,0-2.78-.25,2.17,2.17,0,0,0-1.06.84,3.39,3.39,0,0,0-.59,1.65,3.69,3.69,0,0,0,.28,1.86,3.39,3.39,0,0,0,1.32,1.47,9.07,9.07,0,0,0,5.08,1c1.91-.08,3.94-.33,5.9-.57a91.31,91.31,0,0,0,11.73-2.38,1.84,1.84,0,0,1,2.24,1.31,1.88,1.88,0,0,1-.05,1.08l-.18.49c-1.17,3.3-2.06,6.65-3,9.92s-1.94,6.55-2.71,9.89c-.21.82-.4,1.68-.57,2.49a19.6,19.6,0,0,0-.4,2.28,5.66,5.66,0,0,0,.51,3.51c1.15,1.9,4.91,3.16,7.69,1.13h0a.36.36,0,0,1,.5.08.35.35,0,0,1,0,.37,6.47,6.47,0,0,1-5,3.27,8,8,0,0,1-6.36-2A9.37,9.37,0,0,1,462.28,87a23.16,23.16,0,0,1,.08-3c.1-.95.19-1.85.33-2.78a49,49,0,0,1,2.72-10.78,49.2,49.2,0,0,1,5.32-9.74l2,2.88a91.52,91.52,0,0,0-12,.53c-2,.23-3.91.53-6,.84a14.14,14.14,0,0,1-6.66-.32C443,63,441,54.75,446.6,50.84a8.89,8.89,0,0,1,8.66-.59,8.62,8.62,0,0,1,2,1.31,9.68,9.68,0,0,1,1.56,1.81,10.13,10.13,0,0,1,1.52,4.22,17.05,17.05,0,0,1-.93,7.45,30.62,30.62,0,0,1-1.24,3.07c-.42,1-.89,1.89-1.37,2.81a61.23,61.23,0,0,1-6.88,10.4,56.92,56.92,0,0,1-19.07,15.39.35.35,0,0,1-.47-.17A.35.35,0,0,1,430.45,96.15Z"/><path class="cls-1" d="M823.12,19.52c-.56,2.19-1.25,4.28-1.94,6.36S819.77,30,819,32.05c-1.47,4.07-3,8.08-4.52,12.06s-3.37,7.85-5,11.8c-.82,2-1.61,4-2.49,6l-2.69,5.93a44.81,44.81,0,0,0-3.8,12.37,14.84,14.84,0,0,0,.46,6.09,8.39,8.39,0,0,0,2.73,4.16,9.52,9.52,0,0,0,4,1.79,13.1,13.1,0,0,0,5.1-.07,27.69,27.69,0,0,0,5.57-1.95c1.91-.86,3.85-1.9,6-2.78a.37.37,0,0,1,.45.54,28.62,28.62,0,0,1-4.28,5.32,19.44,19.44,0,0,1-6,4,15,15,0,0,1-7.78,1.06,12.15,12.15,0,0,1-4-1.23,10.23,10.23,0,0,1-3.37-2.78,10.55,10.55,0,0,1-1.86-3.79,13.11,13.11,0,0,1-.4-3.88,39.42,39.42,0,0,1,1.15-6.9,104.1,104.1,0,0,0,2.33-13c.13-1.1.29-2.2.46-3.3s.34-2.2.57-3.28c.4-2.19,1-4.32,1.61-6.45a89.21,89.21,0,0,1,4.41-12.54,83.57,83.57,0,0,1,6.46-11.63c1.23-1.85,2.52-3.66,3.94-5.4a51.33,51.33,0,0,1,4.48-5,.36.36,0,0,1,.6.35Z"/><path class="cls-1" d="M834.76,64.4A124.75,124.75,0,0,0,853.1,31c1.06-3,2-6,2.82-9l.58-2.27.52-2.3.26-1.12a7.22,7.22,0,0,0,.12-.83,1.56,1.56,0,0,0,0-.71,1,1,0,0,0,.29.45,1.25,1.25,0,0,0,.61.34,1.22,1.22,0,0,0,.46,0s0,0-.15.1a3.84,3.84,0,0,0-.86.8l-.1.12-.15.2-.29.42c-.21.27-.38.57-.57.85A34.34,34.34,0,0,0,853.08,26c-.93,2.9-1.77,6-2.64,9.15l-2.61,9.36c-1.76,6.23-3.5,12.47-5.38,18.67-3.78,12.41-8.05,24.69-11.33,37.22v0a1.1,1.1,0,0,1-1.33.78,1.08,1.08,0,0,1-.78-1.33c1.15-4.46,2.18-9,3.42-13.48A86.26,86.26,0,0,1,837.05,73a44.3,44.3,0,0,1,8-12.17A32,32,0,0,1,850.81,56a17.74,17.74,0,0,1,3.67-1.84,12.56,12.56,0,0,1,4.44-.8,10.88,10.88,0,0,1,4.68,1,9.24,9.24,0,0,1,3.83,3.43,9.93,9.93,0,0,1,1.43,4.7,15.58,15.58,0,0,1-.38,4.24,43.1,43.1,0,0,1-2.44,7c-.87,2.14-1.74,4.28-2.66,6.39l-2.73,6.37c-.91,2.1-2,4.27-2.67,6.19a8.81,8.81,0,0,0-.57,2.86,5.07,5.07,0,0,0,.71,2.64,3,3,0,0,0,2.14,1.47,2.8,2.8,0,0,0,2.64-.87h0a.36.36,0,0,1,.5,0,.36.36,0,0,1,.09.42,3.26,3.26,0,0,1-1.35,1.45,4.46,4.46,0,0,1-1.94.57,4.8,4.8,0,0,1-2.06-.36,5.07,5.07,0,0,1-1.74-1.24c-2-2.11-2.18-5.24-1.68-7.71a35.26,35.26,0,0,1,.93-3.52l1-3.33,2.08-6.6c.68-2.21,1.42-4.4,2.15-6.58a41.41,41.41,0,0,0,1.78-6.2A10.19,10.19,0,0,0,862.8,63a4.15,4.15,0,0,0-.61-1.83,2.81,2.81,0,0,0-1.29-1.08,5,5,0,0,0-2-.42c-2.91-.09-6.79,2.54-10,5.22a44.56,44.56,0,0,0-8.43,10,60.39,60.39,0,0,0-5.73,12.25,123.6,123.6,0,0,0-3.61,13.27L829,99.85c3.17-12.56,5.34-25.38,8-38.07,1.33-6.34,2.82-12.65,4.28-19l2.21-9.46c.77-3.14,1.43-6.33,2.45-9.61A38,38,0,0,1,850.31,14c.27-.39.51-.78.8-1.15l.43-.56.22-.29.28-.34a11.3,11.3,0,0,1,2.8-2.36,8.59,8.59,0,0,1,2.07-.85,6.24,6.24,0,0,1,2.87-.06,6,6,0,0,1,2.76,1.42,6.07,6.07,0,0,1,1.61,2.46,8.46,8.46,0,0,1,.31,4.09,13.74,13.74,0,0,1-.3,1.55l-.35,1.23-.7,2.41-.78,2.39a93.33,93.33,0,0,1-3.66,9.32,91.9,91.9,0,0,1-23.4,31.63.34.34,0,0,1-.49,0A.36.36,0,0,1,834.76,64.4Z"/><path class="cls-2" d="M98.27,37.61c0,5.88-4.57,11.24-12.1,15.32a42.36,42.36,0,0,1-4.22,2h0a78.22,78.22,0,0,1-23.79,5.44q-3.79.3-7.76.32h-.26q-2,0-4-.09a93.23,93.23,0,0,1-14-1.59,64,64,0,0,1-18-6.1C7.61,49.41,3.31,44.94,2.25,40A11.89,11.89,0,0,1,2,37.61a12.93,12.93,0,0,1,2.85-7.84c6.68-8.89,24.44-15.25,45.29-15.25,11.47,0,22,1.91,30.25,5.13l.71.29C91.6,24.18,98.27,30.52,98.27,37.61Z"/><path class="cls-2" d="M50.14,60.71V106.9a100.52,100.52,0,0,1-11-.61q-3.64-.42-7.07-1.08a63.65,63.65,0,0,1-18-6.09c-6.49-3.52-10.79-8-11.85-12.93A11.89,11.89,0,0,1,2,83.8V37.61A11.89,11.89,0,0,0,2.25,40c1.06,4.94,5.36,9.41,11.85,12.93a64,64,0,0,0,18,6.1,93.23,93.23,0,0,0,14,1.59,1.24,1.24,0,0,1,0,.16C47.48,60.73,48.81,60.71,50.14,60.71Z"/><path class="cls-2" d="M50.4,60.71c-.17,1.78-.26,3.6-.26,5.44V60.71Z"/><path class="cls-2" d="M98.27,37.61V83.8c0,5.88-4.57,11.24-12.1,15.32a44.7,44.7,0,0,1-4.22,2h0a70.71,70.71,0,0,1-14.55,4.22,87.78,87.78,0,0,1-9.24,1.21c-2.61.22-5.29.33-8,.33V66.15c0-1.84.09-3.66.26-5.44q4,0,7.76-.32A78.22,78.22,0,0,0,82,55h0a42.36,42.36,0,0,0,4.22-2C93.7,48.85,98.27,43.49,98.27,37.61Z"/><line class="cls-3" x1="2" y1="37.61" x2="2" y2="36.51"/><line class="cls-3" x1="98.27" y1="37.61" x2="98.27" y2="36.51"/><line class="cls-3" x1="14.1" y1="99.12" x2="14.1" y2="52.93"/><line class="cls-3" x1="86.17" y1="52.93" x2="86.17" y2="99.12"/><line class="cls-3" x1="32.07" y1="59.03" x2="32.07" y2="105.21"/><line class="cls-3" x1="68.19" y1="59.03" x2="67.4" y2="105.36"/><path class="cls-2" d="M91.8,40.84c0,5.06-3.93,9.67-10.41,13.18-1.13.61-2.34,1.19-3.63,1.73h0A67.34,67.34,0,0,1,57.3,60.43c-2.17.17-4.4.27-6.67.27h-.22c-1.17,0-2.32,0-3.46-.07a79.76,79.76,0,0,1-12.08-1.37A55.2,55.2,0,0,1,19.42,54c-5.59-3-9.28-6.88-10.2-11.12A10.14,10.14,0,0,1,9,40.84a11.17,11.17,0,0,1,2.44-6.74c5.75-7.64,21-13.12,39-13.12a73.24,73.24,0,0,1,26,4.41l.61.25C86.06,29.29,91.8,34.74,91.8,40.84Z"/><line class="cls-3" x1="43.57" y1="42.28" x2="6.27" y2="4.98"/><line class="cls-3" x1="56.35" y1="35.09" x2="89.44" y2="2"/><circle class="cls-4" cx="45.7" cy="44.41" r="2.13"/><circle class="cls-4" cx="56.35" cy="35.09" r="2.13"/></g></g></svg>